<?xml version="1.0" standalone="no"?>
<!DOCTYPE svg PUBLIC "-//W3C//DTD SVG 20010904//EN"
 "http://www.w3.org/TR/2001/REC-SVG-20010904/DTD/svg10.dtd">
<svg version="1.0" xmlns="http://www.w3.org/2000/svg"
 width="2000.000000pt" height="2000.000000pt" viewBox="0 0 2000.000000 2000.000000"
 preserveAspectRatio="xMidYMid meet">

<g transform="translate(0.000000,2000.000000) scale(0.100000,-0.100000)"
fill="#343434" stroke="none">
<path d="M1482 15637 c-22 -7 -35 -18 -40 -36 -4 -14 -7 -2474 -7 -5466 0
-4681 2 -5445 14 -5474 28 -66 -186 -61 2775 -61 2669 0 2696 0 2782 20 86 20
301 40 441 40 54 0 83 5 113 21 32 17 70 24 173 31 108 7 137 12 160 29 21 15
52 22 133 29 86 6 110 12 128 29 14 14 41 22 81 27 33 3 72 14 86 24 14 10 52
23 85 30 32 6 70 19 82 27 13 8 46 21 73 29 27 8 64 23 82 33 17 11 48 22 67
26 19 4 48 18 63 31 16 13 39 24 52 24 13 0 36 10 52 23 38 31 77 57 129 87
24 14 70 44 103 67 34 24 64 43 68 43 5 0 36 26 70 58 34 31 97 82 140 112 88
62 246 215 313 305 25 33 80 102 122 153 43 51 78 98 78 104 0 6 14 26 30 45
17 18 30 40 30 48 0 8 9 19 20 25 10 6 24 28 30 49 5 21 17 45 26 52 9 8 25
32 36 54 10 22 25 51 33 65 8 14 22 41 31 60 10 19 37 73 61 120 23 47 43 94
43 106 0 11 11 31 25 44 18 17 25 34 25 60 0 21 11 58 27 86 14 27 30 75 34
108 4 32 16 70 27 85 14 19 21 52 27 116 5 64 14 104 31 137 21 41 24 61 24
160 1 62 5 158 10 213 19 186 23 358 11 450 -6 50 -14 173 -18 275 -5 162 -9
192 -29 237 -12 29 -25 85 -29 130 -5 52 -16 93 -31 123 -16 30 -24 61 -24 97
0 40 -5 58 -25 81 -13 16 -29 48 -34 72 -5 24 -18 55 -28 69 -11 14 -25 46
-32 71 -7 25 -19 52 -26 60 -12 14 -34 54 -69 125 -8 17 -26 45 -40 64 -14 19
-26 45 -26 57 0 14 -12 31 -30 44 -16 12 -30 28 -30 36 0 7 -9 19 -21 26 -11
7 -28 31 -38 54 -15 33 -152 188 -231 261 -98 91 -138 123 -160 128 -14 3 -52
30 -85 60 -33 30 -67 55 -76 55 -18 0 -79 43 -119 84 -17 17 -37 26 -58 26
-22 0 -41 9 -58 25 -13 13 -41 29 -62 34 -20 6 -45 20 -54 31 -10 11 -28 20
-40 20 -13 0 -57 17 -98 38 -71 35 -75 39 -73 70 1 40 18 62 48 62 12 0 39 13
59 29 20 16 50 33 67 36 16 4 33 15 39 24 5 10 23 24 40 31 16 7 30 16 30 21
0 5 17 17 38 26 43 20 89 54 183 136 11 10 35 25 52 32 37 15 223 196 232 225
3 11 10 20 15 20 5 0 17 15 26 33 9 17 41 60 70 94 30 33 54 68 54 76 0 8 8
25 19 38 10 13 28 42 40 64 12 22 25 47 30 55 28 46 81 169 81 188 0 11 6 27
13 34 23 23 34 51 41 108 4 30 16 70 27 89 12 20 24 67 29 112 5 43 16 99 25
125 31 92 38 235 32 666 -5 401 -7 419 -28 465 -13 30 -24 82 -29 138 -6 62
-16 107 -34 145 -17 37 -26 72 -26 107 0 41 -5 57 -24 78 -13 14 -26 44 -30
66 -4 23 -17 60 -30 83 -13 22 -26 56 -30 74 -3 18 -17 48 -31 66 -14 18 -25
44 -25 58 0 13 -11 35 -24 47 -13 12 -27 36 -30 53 -5 28 -36 72 -84 123 -11
11 -23 35 -27 53 -4 18 -18 40 -31 48 -13 9 -24 21 -24 27 0 6 -15 25 -32 42
-18 17 -44 46 -58 64 -14 19 -48 62 -76 96 -28 33 -56 70 -62 82 -6 11 -25 26
-42 33 -16 7 -30 16 -30 21 0 5 -17 17 -37 28 -21 10 -72 52 -113 92 -41 39
-89 78 -107 85 -44 19 -120 71 -126 88 -3 7 -23 17 -43 21 -21 4 -49 17 -62
30 -12 13 -38 26 -56 29 -18 4 -43 17 -56 31 -15 16 -34 25 -55 25 -20 0 -40
9 -54 24 -13 13 -39 27 -59 31 -20 4 -48 17 -63 29 -17 14 -46 25 -78 29 -29
3 -63 15 -76 25 -14 11 -49 22 -85 26 -43 5 -67 13 -83 30 -19 19 -37 24 -111
28 -73 5 -91 10 -112 29 -22 20 -38 24 -139 29 -88 5 -120 11 -142 26 -24 16
-59 21 -238 30 -156 9 -230 17 -287 33 l-78 21 -2772 -1 c-1903 -1 -2783 -4
-2806 -12z m4718 -1900 c557 -2 566 -3 622 -25 45 -17 78 -22 149 -22 78 0 98
-4 143 -26 30 -15 78 -29 118 -33 47 -5 75 -13 90 -28 13 -11 40 -23 62 -26
21 -3 46 -13 55 -21 10 -9 33 -21 52 -27 19 -7 45 -22 59 -34 14 -12 50 -40
81 -61 60 -42 183 -173 202 -214 6 -14 16 -32 22 -40 21 -28 85 -189 85 -212
0 -13 10 -51 23 -83 21 -57 22 -75 22 -315 0 -235 -2 -258 -19 -285 -13 -19
-22 -59 -27 -119 -7 -68 -13 -94 -29 -111 -11 -12 -20 -31 -20 -43 0 -31 -70
-163 -98 -185 -12 -10 -22 -24 -22 -31 0 -30 -115 -147 -175 -178 -22 -11 -44
-27 -48 -34 -10 -18 -111 -84 -128 -84 -8 0 -34 -14 -58 -30 -24 -17 -53 -30
-65 -30 -12 0 -42 -11 -68 -25 -26 -14 -61 -25 -79 -25 -17 0 -54 -12 -83 -26
-41 -21 -72 -27 -163 -34 -62 -4 -119 -12 -126 -18 -7 -6 -33 -15 -57 -21 -28
-6 -614 -11 -1558 -12 -1311 -3 -1514 -1 -1527 12 -12 12 -15 180 -15 1217 -1
896 1 1207 10 1217 6 8 28 15 48 17 37 3 1481 0 2522 -5z m685 -4281 c28 -12
77 -21 161 -26 92 -6 130 -13 162 -29 23 -12 63 -24 89 -27 27 -4 64 -17 83
-29 19 -13 50 -26 69 -30 18 -4 49 -18 68 -31 20 -13 43 -24 52 -24 9 0 36
-14 61 -30 25 -16 50 -30 57 -30 18 0 150 -110 224 -187 61 -64 129 -154 129
-172 0 -5 12 -26 26 -47 15 -21 33 -61 41 -89 8 -27 24 -67 35 -88 11 -23 23
-76 29 -130 5 -49 16 -113 24 -140 11 -39 15 -106 15 -279 0 -202 -2 -234 -19
-271 -12 -29 -20 -78 -25 -156 -5 -87 -11 -122 -26 -146 -10 -17 -23 -59 -29
-94 -6 -35 -17 -71 -25 -80 -8 -9 -24 -36 -36 -61 -47 -98 -67 -131 -106 -172
-22 -24 -50 -60 -63 -80 -25 -41 -131 -142 -172 -163 -14 -8 -50 -36 -80 -64
-36 -34 -63 -51 -80 -51 -15 0 -39 -13 -57 -30 -21 -20 -42 -30 -62 -30 -20 0
-38 -9 -52 -25 -15 -18 -32 -25 -56 -25 -18 0 -64 -13 -102 -30 -47 -21 -85
-30 -122 -30 -33 0 -70 -8 -98 -22 -42 -20 -67 -22 -345 -29 -369 -9 -2950
-11 -2994 -3 -23 5 -33 14 -38 33 -4 14 -8 674 -8 1467 0 1215 2 1444 14 1458
13 15 127 16 1615 14 1537 -3 1603 -4 1641 -22z"/>
<path d="M12701 14984 c-24 -31 -24 -26 -21 -568 1 -276 5 -372 17 -415 7 -31
18 -60 23 -65 7 -7 2356 -10 4583 -6 74 0 81 2 107 30 25 27 28 38 34 132 8
138 10 849 1 870 -4 9 -22 24 -40 32 -30 14 -261 16 -2358 16 l-2326 0 -20
-26z"/>
<path d="M14654 12951 c-59 -4 -88 -11 -102 -24 -17 -16 -45 -20 -164 -26
-125 -6 -148 -10 -173 -29 -23 -16 -51 -23 -115 -28 -57 -5 -100 -14 -130 -29
-26 -13 -74 -25 -113 -28 -45 -4 -74 -12 -87 -25 -10 -10 -48 -24 -82 -31 -35
-7 -71 -20 -80 -28 -10 -9 -39 -19 -65 -24 -26 -5 -56 -18 -67 -28 -12 -10
-37 -22 -56 -26 -19 -4 -51 -17 -70 -30 -19 -13 -53 -28 -76 -34 -22 -6 -49
-20 -58 -30 -10 -11 -30 -22 -44 -26 -25 -6 -59 -25 -134 -77 -15 -10 -42 -21
-58 -25 -17 -3 -36 -14 -43 -24 -14 -20 -107 -85 -135 -93 -9 -3 -43 -30 -74
-58 -32 -29 -86 -71 -120 -93 -85 -54 -552 -521 -579 -578 -23 -50 -49 -85
-112 -152 -28 -30 -49 -63 -53 -83 -4 -18 -14 -38 -24 -45 -15 -11 -34 -40
-79 -126 -7 -14 -24 -37 -36 -51 -12 -14 -25 -41 -29 -62 -4 -23 -16 -42 -31
-52 -18 -12 -25 -25 -25 -48 0 -20 -9 -42 -24 -57 -13 -15 -29 -48 -35 -75 -7
-27 -21 -60 -31 -73 -10 -14 -22 -45 -26 -69 -3 -25 -13 -52 -22 -60 -8 -8
-21 -45 -28 -81 -8 -36 -23 -77 -33 -92 -10 -14 -22 -53 -26 -86 -4 -40 -14
-68 -28 -83 -16 -18 -23 -41 -28 -98 -4 -55 -12 -83 -28 -105 -18 -25 -24 -50
-30 -132 -6 -71 -14 -114 -28 -142 -17 -32 -22 -67 -27 -179 -5 -120 -9 -143
-28 -175 l-23 -36 -3 -600 c-4 -627 7 -951 35 -1033 8 -24 18 -99 22 -167 6
-84 15 -140 29 -176 11 -30 25 -95 30 -145 6 -51 18 -107 27 -125 10 -18 21
-64 26 -102 5 -39 18 -86 30 -105 11 -20 23 -58 26 -86 3 -28 16 -71 28 -96
12 -25 26 -63 29 -85 4 -22 16 -54 26 -70 11 -17 22 -51 26 -75 4 -25 17 -56
29 -70 13 -14 26 -41 30 -62 4 -20 18 -46 31 -59 15 -14 24 -34 24 -51 0 -18
10 -38 25 -52 14 -13 28 -38 31 -57 4 -19 16 -45 28 -59 31 -36 60 -80 81
-120 10 -19 27 -44 37 -55 33 -34 77 -96 84 -118 4 -12 17 -30 30 -40 13 -10
24 -25 24 -32 0 -8 9 -19 21 -25 11 -6 37 -30 57 -53 119 -133 387 -379 447
-410 17 -8 50 -34 73 -56 23 -23 46 -41 50 -41 5 0 17 -9 28 -21 10 -11 34
-27 52 -35 19 -8 49 -26 68 -41 67 -56 91 -72 117 -78 14 -4 32 -14 39 -22 7
-8 35 -26 63 -39 27 -13 77 -40 110 -60 109 -66 285 -153 321 -160 19 -3 47
-17 62 -29 15 -12 43 -25 63 -29 20 -3 47 -15 59 -26 13 -11 23 -20 24 -20 44
-3 123 -24 141 -38 14 -11 49 -22 84 -26 36 -4 69 -15 85 -27 19 -15 49 -23
109 -28 50 -5 97 -16 122 -29 26 -14 74 -24 140 -30 64 -7 115 -18 140 -30 32
-16 69 -21 182 -26 99 -5 162 -13 210 -28 62 -19 100 -21 410 -25 295 -4 352
-2 420 12 43 9 96 21 118 26 22 4 114 11 205 15 141 6 170 10 199 27 25 15 61
23 136 28 75 6 115 15 156 34 35 16 72 25 104 25 32 0 65 8 89 21 22 11 67 27
100 34 34 7 75 20 93 30 18 9 54 20 81 24 26 4 61 17 77 29 17 12 53 25 80 28
33 4 58 14 72 29 11 12 39 25 62 29 25 4 44 13 51 26 6 11 29 24 53 30 23 7
52 23 65 36 14 15 34 24 52 24 16 0 36 8 46 18 18 18 61 45 128 83 22 12 47
30 55 40 9 10 30 22 48 26 17 4 56 29 85 55 90 78 121 103 183 143 69 45 445
417 470 465 10 18 26 42 36 53 10 12 19 24 19 27 0 7 8 16 106 122 28 30 54
68 58 84 4 16 16 38 26 49 10 11 35 37 54 58 24 25 36 47 36 66 0 16 10 37 25
51 14 13 27 38 31 56 3 18 15 40 25 50 11 9 24 36 30 58 6 23 19 50 29 61 10
11 21 35 25 53 4 18 17 45 29 60 15 18 25 45 28 80 3 34 14 65 29 85 21 28 24
45 27 138 3 89 1 108 -13 122 -18 19 -267 22 -1511 22 l-572 0 -41 -42 c-22
-24 -43 -55 -47 -70 -4 -16 -20 -41 -35 -58 -16 -16 -40 -41 -53 -55 -13 -14
-29 -42 -36 -63 -8 -26 -46 -72 -130 -155 -128 -127 -183 -172 -211 -172 -10
0 -26 -10 -36 -23 -20 -25 -68 -57 -128 -85 -22 -11 -46 -26 -53 -35 -7 -8
-32 -19 -55 -22 -22 -4 -57 -18 -77 -30 -19 -13 -59 -26 -89 -29 -30 -4 -68
-17 -85 -29 -25 -17 -50 -22 -147 -28 -79 -4 -128 -12 -150 -23 -79 -40 -495
-40 -584 -1 -28 13 -74 19 -150 22 -133 5 -145 7 -171 31 -13 12 -42 21 -86
26 -42 4 -82 15 -110 31 -24 14 -57 25 -75 25 -19 0 -43 10 -60 24 -16 13 -46
27 -66 31 -21 4 -42 16 -47 26 -6 10 -29 23 -52 30 -25 6 -67 33 -105 65 -35
30 -72 54 -81 54 -9 0 -25 9 -37 19 -171 162 -210 199 -224 214 -9 10 -40 43
-68 75 -29 31 -53 64 -53 74 0 9 -15 34 -32 57 -42 51 -74 103 -83 133 -4 13
-18 36 -31 51 -13 16 -24 39 -24 51 0 13 -11 44 -25 70 -14 26 -28 66 -31 89
-3 23 -15 55 -26 71 -12 16 -24 56 -29 97 -5 38 -18 88 -30 111 -17 34 -23 69
-29 168 -5 93 -12 134 -25 160 -15 27 -19 57 -20 130 l0 95 40 20 c39 20 59
20 975 22 514 1 1225 -3 1580 -7 355 -5 1244 -6 1975 -2 1258 7 1332 8 1367
25 20 10 40 26 44 35 13 31 17 519 5 595 -34 216 -42 306 -47 547 -6 254 -8
267 -31 318 -20 43 -26 73 -30 170 -4 95 -9 122 -25 145 -14 21 -22 56 -29
129 -7 77 -15 110 -34 143 -16 27 -25 57 -25 86 0 24 -7 55 -15 69 -26 46 -36
73 -42 119 -3 25 -14 56 -25 67 -11 13 -23 45 -27 78 -4 31 -15 64 -25 75 -10
10 -24 40 -32 66 -7 26 -21 53 -29 59 -9 6 -21 31 -26 56 -5 24 -21 54 -34 66
-15 13 -25 34 -25 50 0 15 -13 41 -30 61 -16 18 -30 43 -30 55 0 11 -12 35
-27 53 -57 66 -65 78 -76 109 -5 17 -21 45 -34 61 -56 69 -83 108 -83 120 0 6
-25 38 -55 71 -30 32 -57 71 -60 86 -3 14 -30 50 -58 80 -29 30 -71 75 -95
101 -24 26 -47 47 -51 47 -4 0 -13 11 -19 25 -6 14 -16 25 -20 25 -5 0 -70 59
-143 132 -74 72 -150 138 -169 146 -19 8 -45 24 -57 36 -26 24 -74 66 -118
102 -16 13 -46 29 -66 34 -21 6 -39 17 -43 25 -3 8 -27 25 -53 39 -26 13 -72
40 -102 60 -29 20 -65 39 -80 42 -14 4 -33 15 -42 26 -9 11 -36 24 -64 29 -27
5 -58 18 -69 28 -12 11 -43 25 -70 31 -27 6 -62 22 -78 35 -17 15 -42 25 -60
25 -17 0 -45 9 -63 20 -17 11 -61 26 -96 33 -36 8 -77 22 -91 31 -15 10 -55
20 -90 23 -42 3 -75 13 -98 28 -27 17 -56 24 -124 29 -66 5 -98 12 -125 28
-30 19 -55 23 -187 28 -136 6 -155 9 -190 31 l-39 24 -535 1 c-294 1 -572 -1
-616 -5z m755 -1706 c25 -12 71 -19 180 -24 103 -5 155 -12 176 -23 17 -9 59
-22 95 -28 66 -13 87 -21 221 -84 41 -20 81 -36 87 -36 6 0 16 -8 21 -18 6
-11 31 -27 56 -36 25 -10 45 -22 45 -27 0 -4 14 -16 31 -25 18 -9 53 -36 78
-61 25 -24 59 -51 74 -59 15 -8 38 -24 50 -35 67 -62 101 -99 135 -147 20 -29
60 -81 88 -115 28 -34 54 -74 58 -89 3 -15 17 -38 31 -52 14 -14 25 -36 25
-50 0 -13 11 -37 24 -53 13 -15 27 -47 30 -69 4 -25 18 -51 32 -65 20 -19 24
-32 24 -79 0 -41 5 -64 19 -82 23 -28 41 -118 41 -202 0 -40 7 -74 20 -102 23
-47 30 -168 10 -188 -13 -13 -3631 -21 -3683 -8 -27 7 -33 14 -35 41 -2 18 4
52 14 74 9 23 20 86 24 140 5 67 12 103 23 115 9 10 23 48 30 84 8 37 24 79
36 93 12 16 21 42 21 62 0 18 14 59 30 90 17 31 30 63 30 72 0 10 11 32 25 51
14 19 25 39 25 46 0 7 11 26 25 42 14 17 25 34 25 40 0 6 16 29 35 52 19 23
35 47 35 54 0 21 74 116 148 188 159 156 208 201 235 215 17 8 37 22 45 29 7
8 17 14 22 14 5 0 24 13 42 28 18 16 52 34 74 40 23 7 44 19 47 27 3 7 23 17
44 21 21 4 52 17 68 30 18 14 52 25 85 30 30 4 73 16 95 27 31 15 72 22 175
28 74 5 162 15 195 23 95 24 103 25 245 22 105 -2 143 -7 169 -21z"/>
</g>
</svg>
