<svg xmlns="http://www.w3.org/2000/svg" xmlns:xlink="http://www.w3.org/1999/xlink" width="2000" zoomAndPan="magnify" viewBox="0 0 1500 1499.999933" height="2000" preserveAspectRatio="xMidYMid meet" version="1.0"><defs><clipPath id="cf1a0f2245"><path d="M 753.433594 0 C 337.324219 0 0 335.785156 0 750 C 0 1164.214844 337.324219 1500 753.433594 1500 C 1169.542969 1500 1506.867188 1164.214844 1506.867188 750 C 1506.867188 335.785156 1169.542969 0 753.433594 0 Z M 753.433594 0 " clip-rule="nonzero"/></clipPath><clipPath id="343eb55bde"><path d="M 0 0 L 1500 0 L 1500 1500 L 0 1500 Z M 0 0 " clip-rule="nonzero"/></clipPath><clipPath id="fc4d4d5098"><path d="M 753.433594 0 C 337.324219 0 0 335.785156 0 750 C 0 1164.214844 337.324219 1500 753.433594 1500 C 1169.542969 1500 1506.867188 1164.214844 1506.867188 750 C 1506.867188 335.785156 1169.542969 0 753.433594 0 Z M 753.433594 0 " clip-rule="nonzero"/></clipPath><clipPath id="f043f3ee0e"><rect x="0" width="1500" y="0" height="1500"/></clipPath></defs><g clip-path="url(#cf1a0f2245)"><g transform="matrix(1, 0, 0, 1, 0, 0.000000000000112861)"><g clip-path="url(#f043f3ee0e)"><g clip-path="url(#343eb55bde)"><g clip-path="url(#fc4d4d5098)"><rect x="-330" width="2160" fill="#f7a63b" height="2159.999904" y="-329.999985" fill-opacity="1"/></g></g></g></g></g><path fill="#000000" d="M 348.316406 360.082031 C 346.523438 360.332031 344.789062 360.828125 344.417969 361.199219 C 343.367188 362.25 343.058594 368.378906 343.984375 369.121094 C 344.480469 369.492188 349.988281 370.296875 356.300781 370.914062 C 373.6875 372.585938 390.144531 375.496094 397.136719 378.160156 C 405.738281 381.378906 409.261719 383.542969 414.523438 388.804688 C 421.636719 395.863281 423.125 399.699219 425.597656 417.652344 C 426.339844 422.789062 426.339844 434.488281 425.597656 440.863281 C 425.289062 443.585938 424.609375 450.394531 424.050781 456.027344 C 423 467.914062 422.503906 471.316406 421.824219 473.238281 C 421.515625 473.980469 421.019531 478.4375 420.648438 483.140625 C 420.277344 487.78125 419.410156 493.972656 418.792969 496.882812 C 418.171875 499.792969 417.308594 504.929688 416.996094 508.394531 C 416.625 511.800781 415.945312 515.578125 415.449219 516.753906 C 415.019531 517.929688 414.152344 523.3125 413.59375 528.824219 C 413.039062 534.269531 412.296875 539.71875 411.984375 540.894531 C 411.613281 542.070312 410.933594 547.332031 410.4375 552.59375 C 409.882812 557.855469 409.078125 563.425781 408.582031 564.972656 C 408.089844 566.519531 407.40625 571.039062 407.035156 575.0625 C 406.664062 579.085938 405.984375 583.355469 405.488281 584.53125 C 404.996094 585.707031 404.3125 589.671875 403.941406 593.324219 C 403.507812 596.976562 402.703125 602.175781 402.085938 604.898438 C 401.46875 607.621094 400.664062 613.191406 400.230469 617.277344 C 399.859375 621.363281 399.117188 626.625 398.621094 629.039062 C 398.125 631.390625 397.320312 637.519531 396.828125 642.53125 C 396.332031 647.546875 395.652344 652.191406 395.28125 652.871094 C 394.910156 653.488281 394.226562 657.882812 393.734375 662.589844 C 393.238281 667.355469 392.433594 672.246094 391.875 673.484375 C 391.320312 674.84375 390.640625 679.425781 390.269531 684.316406 C 389.957031 688.957031 389.277344 694.714844 388.78125 697.128906 C 388.351562 699.480469 387.609375 704.246094 387.234375 707.652344 C 386.863281 711.054688 386.183594 715.636719 385.628906 717.867188 C 385.132812 720.09375 384.328125 725.355469 383.769531 729.625 C 383.277344 733.898438 382.472656 738.789062 381.976562 740.519531 C 381.480469 742.191406 380.675781 747.453125 380.121094 752.15625 C 379.625 756.800781 378.882812 761.195312 378.574219 761.875 C 378.203125 762.558594 377.460938 767.632812 376.964844 773.140625 C 376.46875 778.652344 375.664062 785.398438 375.171875 788.121094 C 374.738281 790.84375 373.871094 796.601562 373.3125 800.996094 C 372.757812 805.332031 371.953125 809.910156 371.519531 811.210938 C 371.023438 812.511719 370.46875 816.347656 370.222656 819.753906 C 369.972656 823.09375 369.230469 827.984375 368.613281 830.523438 C 367.929688 833.0625 367.128906 838.507812 366.753906 842.59375 C 366.445312 846.679688 365.765625 851.632812 365.269531 853.613281 C 364.777344 855.59375 363.910156 861.410156 363.414062 866.609375 C 362.917969 871.8125 362.175781 877.011719 361.867188 878.125 C 361.558594 879.300781 360.816406 883.757812 360.320312 888.027344 C 359.765625 892.300781 358.960938 897.066406 358.464844 898.613281 C 357.96875 900.160156 357.164062 904.925781 356.609375 909.261719 C 356.113281 913.59375 355.371094 917.925781 355 918.855469 C 354.628906 919.785156 353.949219 924.613281 353.453125 929.5625 C 352.957031 934.515625 352.152344 940.644531 351.660156 943.179688 C 351.164062 945.71875 350.484375 951.226562 350.113281 955.4375 C 349.738281 959.585938 348.996094 964.351562 348.566406 965.960938 C 348.070312 967.570312 347.390625 971.160156 347.019531 973.945312 C 346.648438 976.792969 345.84375 980.816406 345.160156 982.921875 C 344.480469 985.085938 343.675781 989.421875 343.304688 992.515625 C 342.996094 995.671875 342.253906 999.449219 341.757812 1000.933594 C 341.261719 1002.417969 340.398438 1005.699219 339.902344 1008.238281 C 338.292969 1016.410156 333.035156 1032.195312 331.300781 1034.113281 C 330.804688 1034.667969 330.1875 1036.21875 329.941406 1037.515625 C 329.074219 1042.46875 323.503906 1052.558594 316.636719 1061.71875 C 315.648438 1063.082031 314.039062 1065.308594 313.171875 1066.671875 C 310.945312 1070.015625 298.324219 1082.457031 295.601562 1084.003906 C 294.363281 1084.683594 291.765625 1086.292969 289.785156 1087.65625 C 284.773438 1091 279.015625 1093.96875 276.480469 1094.527344 C 275.304688 1094.773438 273.324219 1095.457031 272.148438 1096.074219 C 270.972656 1096.632812 268.621094 1097.5 266.890625 1097.871094 C 265.21875 1098.304688 263.363281 1099.046875 262.804688 1099.539062 C 262.25 1100.035156 260.023438 1100.71875 257.855469 1101.089844 C 255.691406 1101.398438 252.90625 1102.078125 251.667969 1102.511719 C 250.492188 1103.007812 246.164062 1103.875 242.078125 1104.367188 C 238.054688 1104.925781 233.042969 1105.792969 231.003906 1106.289062 C 228.960938 1106.722656 224.257812 1107.339844 220.484375 1107.527344 C 216.460938 1107.773438 213.121094 1108.332031 212.316406 1108.824219 C 210.585938 1109.878906 209.410156 1113.53125 209.902344 1116.191406 C 210.273438 1118.109375 210.523438 1118.296875 213.246094 1118.730469 C 214.855469 1118.976562 222.03125 1118.855469 229.148438 1118.421875 C 236.324219 1117.988281 253.585938 1117.429688 267.507812 1117.121094 C 281.492188 1116.75 301.230469 1116.191406 311.441406 1115.820312 C 338.664062 1114.769531 389.03125 1114.457031 394.351562 1115.324219 C 396.765625 1115.695312 406.355469 1116.253906 415.699219 1116.5625 C 425.042969 1116.871094 434.816406 1117.367188 437.355469 1117.675781 C 439.890625 1117.988281 447.070312 1118.792969 453.257812 1119.535156 C 464.269531 1120.835938 470.394531 1121.761719 471.324219 1122.320312 C 471.570312 1122.503906 475.160156 1122.9375 479.304688 1123.308594 C 483.453125 1123.683594 488.339844 1124.363281 490.195312 1124.859375 C 491.988281 1125.351562 497.0625 1126.15625 501.457031 1126.714844 C 505.851562 1127.273438 510.984375 1128.078125 512.839844 1128.570312 C 514.699219 1129.066406 518.71875 1129.746094 521.75 1130.121094 C 524.785156 1130.492188 528.371094 1131.171875 529.796875 1131.667969 C 531.21875 1132.164062 535.242188 1132.96875 538.765625 1133.523438 C 542.230469 1134.019531 545.882812 1134.824219 546.75 1135.320312 C 547.675781 1135.8125 550.957031 1136.496094 554.050781 1136.867188 C 557.082031 1137.238281 560.980469 1137.980469 562.710938 1138.476562 C 564.382812 1138.972656 568.28125 1139.777344 571.3125 1140.269531 C 574.40625 1140.765625 577.6875 1141.507812 578.738281 1141.878906 C 579.726562 1142.25 582.882812 1142.996094 585.730469 1143.488281 C 588.578125 1143.984375 591.671875 1144.726562 592.535156 1145.222656 C 593.464844 1145.65625 596.1875 1146.398438 598.539062 1146.832031 C 600.949219 1147.265625 603.796875 1148.007812 604.910156 1148.441406 C 606.023438 1148.875 609.613281 1149.742188 612.894531 1150.296875 C 616.171875 1150.855469 619.882812 1151.660156 621.121094 1152.09375 C 622.421875 1152.527344 625.640625 1153.269531 628.300781 1153.640625 C 630.960938 1154.074219 634.179688 1154.753906 635.351562 1155.1875 C 636.527344 1155.683594 639.191406 1156.363281 641.230469 1156.738281 C 643.273438 1157.109375 646.613281 1157.972656 648.65625 1158.59375 C 650.699219 1159.210938 654.90625 1160.078125 657.9375 1160.511719 C 661.03125 1160.882812 664.558594 1161.625 665.917969 1162.058594 C 667.21875 1162.554688 670.808594 1163.234375 673.964844 1163.546875 C 677.058594 1163.917969 681.945312 1164.722656 684.851562 1165.339844 C 687.761719 1166.019531 692.214844 1166.703125 694.753906 1166.949219 C 697.289062 1167.136719 701.746094 1167.878906 704.652344 1168.496094 C 707.5625 1169.179688 713.007812 1169.984375 716.71875 1170.355469 C 720.492188 1170.726562 726.433594 1171.46875 730.023438 1172.085938 C 735.40625 1172.953125 741.34375 1173.140625 764.980469 1173.140625 C 791.648438 1173.140625 794 1173.078125 802.414062 1171.714844 C 816.644531 1169.488281 829.640625 1166.640625 831.1875 1165.402344 C 831.558594 1165.15625 832.917969 1164.597656 834.28125 1164.164062 C 835.640625 1163.792969 838.734375 1162.679688 841.085938 1161.6875 C 843.5 1160.699219 845.851562 1159.769531 846.347656 1159.523438 C 846.839844 1159.335938 848.757812 1158.285156 850.492188 1157.167969 C 852.285156 1156.054688 856 1153.828125 858.78125 1152.15625 C 865.402344 1148.132812 875.117188 1139.28125 878.457031 1134.144531 C 879.324219 1132.78125 880.191406 1131.542969 880.375 1131.355469 C 880.5625 1131.171875 881.675781 1129.6875 882.851562 1128.015625 C 884.027344 1126.40625 885.574219 1124.425781 886.316406 1123.683594 C 886.996094 1123 887.925781 1121.453125 888.296875 1120.339844 C 888.667969 1119.226562 889.535156 1117.554688 890.277344 1116.6875 C 890.957031 1115.820312 891.515625 1114.769531 891.515625 1114.335938 C 891.515625 1113.902344 892.132812 1112.664062 892.9375 1111.488281 C 893.679688 1110.3125 894.855469 1108.082031 895.472656 1106.410156 C 896.09375 1104.800781 896.773438 1103.503906 897.082031 1103.503906 C 897.390625 1103.503906 897.949219 1102.449219 898.320312 1101.148438 C 898.753906 1099.914062 899.621094 1097.992188 900.238281 1096.941406 C 900.917969 1095.890625 901.414062 1094.589844 901.414062 1094.09375 C 901.414062 1093.597656 902.402344 1091.308594 903.578125 1088.894531 C 904.753906 1086.542969 905.746094 1084.191406 905.746094 1083.695312 C 905.746094 1083.199219 906.300781 1082.085938 906.984375 1081.21875 C 907.664062 1080.351562 908.21875 1079.238281 908.21875 1078.679688 C 908.21875 1078.125 908.902344 1076.390625 909.707031 1074.84375 C 910.570312 1073.296875 911.625 1070.632812 912.117188 1069.023438 C 912.613281 1067.414062 913.480469 1065.1875 914.035156 1064.195312 C 914.59375 1063.144531 915.027344 1061.90625 915.027344 1061.410156 C 915.027344 1060.914062 915.894531 1058.8125 916.882812 1056.769531 C 917.933594 1054.726562 918.738281 1052.683594 918.738281 1052.125 C 918.738281 1051.628906 919.296875 1050.332031 919.914062 1049.277344 C 921.398438 1046.863281 924.058594 1040.425781 925.296875 1036.339844 C 925.855469 1034.609375 926.597656 1032.6875 927.03125 1032.007812 C 927.464844 1031.328125 928.207031 1029.65625 928.640625 1028.292969 C 929.070312 1026.933594 930.125 1024.578125 930.929688 1023.09375 C 931.671875 1021.609375 932.351562 1020.0625 932.351562 1019.628906 C 932.351562 1019.195312 932.910156 1018.203125 933.527344 1017.335938 C 934.207031 1016.472656 935.074219 1014.429688 935.507812 1012.757812 C 935.941406 1011.085938 936.621094 1008.917969 937.117188 1007.929688 C 937.609375 1007 938.414062 1005.019531 938.847656 1003.597656 C 940.210938 999.324219 942.621094 994 943.675781 992.824219 C 944.230469 992.207031 945.035156 990.71875 945.40625 989.542969 C 945.839844 988.367188 946.644531 986.820312 947.203125 986.078125 C 947.820312 985.273438 948.5 983.601562 948.75 982.363281 C 948.996094 981.125 949.675781 979.082031 950.296875 977.84375 C 950.914062 976.667969 951.71875 974.441406 952.152344 972.894531 C 952.523438 971.347656 953.265625 969.675781 953.699219 969.179688 C 954.132812 968.683594 954.8125 967.199219 955.246094 965.835938 C 955.679688 964.535156 956.667969 962.496094 957.472656 961.257812 C 958.277344 960.082031 958.957031 958.65625 958.957031 958.097656 C 958.957031 957.542969 959.515625 955.933594 960.195312 954.632812 C 960.875 953.269531 961.925781 950.484375 962.421875 948.503906 C 962.980469 946.460938 963.785156 944.234375 964.277344 943.554688 C 964.773438 942.871094 965.144531 941.820312 965.144531 941.261719 C 965.144531 940.707031 965.824219 938.972656 966.691406 937.425781 C 967.496094 935.878906 968.484375 933.464844 968.859375 932.101562 C 969.230469 930.738281 969.910156 929.253906 970.40625 928.757812 C 970.835938 928.261719 971.703125 926.222656 972.324219 924.238281 C 972.878906 922.257812 973.871094 919.597656 974.488281 918.421875 C 975.167969 917.246094 975.664062 915.882812 975.664062 915.386719 C 975.664062 914.582031 976.714844 912.230469 980.984375 903.316406 C 981.789062 901.585938 982.46875 899.914062 982.46875 899.542969 C 982.46875 899.171875 983.152344 897.933594 983.953125 896.816406 C 984.757812 895.703125 985.625 893.785156 985.875 892.546875 C 986.121094 891.308594 986.988281 888.769531 987.792969 886.976562 C 988.59375 885.179688 989.277344 883.386719 989.277344 882.953125 C 989.277344 882.519531 989.832031 881.34375 990.453125 880.230469 C 991.132812 879.175781 992 877.132812 992.371094 875.773438 C 992.742188 874.410156 993.421875 872.925781 993.855469 872.429688 C 994.351562 871.933594 995.09375 870.324219 995.464844 868.839844 C 995.898438 867.355469 996.640625 865.25 997.195312 864.257812 C 998.0625 862.585938 999.113281 859.988281 1001.898438 852.1875 C 1002.457031 850.640625 1003.445312 848.289062 1004.0625 846.925781 C 1006.972656 840.984375 1008.953125 836.28125 1009.324219 834.546875 C 1009.507812 833.496094 1010.375 831.265625 1011.179688 829.59375 C 1014.027344 823.589844 1015.757812 819.691406 1016.191406 818.144531 C 1016.4375 817.277344 1017.179688 815.914062 1017.800781 815.109375 C 1018.480469 814.304688 1018.976562 813.191406 1018.976562 812.695312 C 1018.976562 812.199219 1019.65625 810.28125 1020.523438 808.550781 C 1021.328125 806.753906 1022.316406 804.09375 1022.625 802.605469 C 1022.996094 801.121094 1023.988281 798.519531 1024.855469 796.851562 C 1025.71875 795.179688 1026.402344 793.382812 1026.402344 792.949219 C 1026.402344 792.453125 1026.957031 791.03125 1027.578125 789.792969 C 1030.546875 784.097656 1032.589844 779.703125 1032.589844 779.023438 C 1032.589844 778.652344 1033.144531 777.164062 1033.765625 775.804688 C 1035.0625 773.082031 1037.539062 767.015625 1039.394531 762.308594 C 1040.011719 760.699219 1040.941406 758.96875 1041.4375 758.472656 C 1041.929688 757.976562 1042.550781 756.492188 1042.796875 755.191406 C 1043.046875 753.890625 1043.726562 751.972656 1044.34375 750.980469 C 1044.964844 749.929688 1045.644531 748.132812 1045.890625 746.957031 C 1046.695312 743.367188 1050.78125 733.527344 1054.304688 726.964844 C 1054.988281 725.664062 1055.976562 723.25 1056.410156 721.703125 C 1057.710938 717.183594 1060.863281 708.582031 1061.546875 707.777344 C 1061.855469 707.34375 1062.351562 706.167969 1062.597656 705.050781 C 1062.785156 703.9375 1063.464844 702.453125 1064.019531 701.648438 C 1064.640625 700.84375 1065.503906 699.109375 1065.9375 697.746094 C 1066.371094 696.386719 1067.113281 694.839844 1067.546875 694.34375 C 1067.980469 693.847656 1068.847656 691.867188 1069.464844 690.011719 C 1070.085938 688.152344 1070.890625 686.046875 1071.320312 685.367188 C 1071.691406 684.6875 1072.375 683.015625 1072.808594 681.652344 C 1073.238281 680.292969 1073.921875 678.746094 1074.355469 678.25 C 1074.847656 677.753906 1075.40625 676.453125 1075.589844 675.464844 C 1076.023438 673.792969 1079.117188 666.675781 1081.160156 662.773438 C 1081.65625 661.90625 1082.460938 659.308594 1082.953125 656.957031 C 1083.511719 654.664062 1084.378906 652.191406 1084.871094 651.445312 C 1085.367188 650.703125 1085.800781 649.652344 1085.800781 649.15625 C 1085.800781 648.597656 1086.480469 646.804688 1087.285156 645.070312 C 1088.089844 643.398438 1089.078125 640.921875 1089.511719 639.5625 C 1089.945312 638.199219 1090.625 636.652344 1091.058594 636.15625 C 1091.492188 635.664062 1092.296875 633.679688 1092.917969 631.824219 C 1093.535156 629.96875 1094.214844 628.109375 1094.523438 627.800781 C 1095.019531 627.121094 1097.308594 621.238281 1099.476562 615.171875 C 1100.15625 613.316406 1101.023438 611.335938 1101.515625 610.839844 C 1101.949219 610.285156 1102.570312 609.167969 1102.816406 608.300781 C 1103.0625 607.4375 1103.683594 606.074219 1104.175781 605.269531 C 1104.671875 604.464844 1105.601562 602.113281 1106.21875 600.007812 C 1107.394531 595.921875 1109.1875 591.28125 1111.539062 586.265625 C 1112.34375 584.53125 1113.023438 582.738281 1113.023438 582.242188 C 1113.023438 581.746094 1113.582031 580.507812 1114.261719 579.519531 C 1114.945312 578.464844 1115.933594 576.113281 1116.492188 574.257812 C 1117.046875 572.402344 1117.851562 570.359375 1118.347656 569.675781 C 1118.839844 568.996094 1119.210938 568.003906 1119.210938 567.570312 C 1119.210938 566.644531 1122.304688 559.339844 1125.152344 553.519531 C 1125.957031 551.789062 1126.636719 549.992188 1126.636719 549.433594 C 1126.636719 548.878906 1127.195312 547.703125 1127.875 546.835938 C 1128.554688 545.96875 1129.113281 544.980469 1129.113281 544.605469 C 1129.113281 543.800781 1133.195312 533.03125 1134.0625 531.359375 C 1135.980469 528.019531 1139.632812 520.09375 1139.632812 519.351562 C 1139.632812 519.105469 1140.3125 517.617188 1141.117188 516.070312 C 1141.921875 514.523438 1142.847656 512.296875 1143.28125 511.121094 C 1143.652344 509.941406 1144.644531 507.589844 1145.507812 505.917969 C 1146.375 504.25 1147.054688 502.515625 1147.054688 502.144531 C 1147.054688 501.710938 1147.613281 500.90625 1148.230469 500.347656 C 1148.914062 499.730469 1149.65625 498.429688 1149.839844 497.5 C 1150.027344 496.574219 1150.894531 494.902344 1151.757812 493.726562 C 1152.5625 492.609375 1153.242188 491.433594 1153.242188 491.125 C 1153.242188 490.382812 1159.925781 478.375 1161.410156 476.457031 C 1163.699219 473.484375 1165.804688 469.957031 1166.546875 467.789062 C 1167.351562 465.5625 1169.765625 461.539062 1171.375 459.617188 C 1171.867188 459.0625 1172.488281 458.007812 1172.734375 457.265625 C 1172.980469 456.523438 1173.910156 455.039062 1174.839844 453.984375 C 1175.765625 452.871094 1177.375 450.582031 1178.488281 448.910156 C 1181.769531 443.710938 1187.523438 436.160156 1188.699219 435.539062 C 1189.253906 435.230469 1189.75 434.609375 1189.75 434.238281 C 1189.75 431.824219 1213.820312 406.878906 1220.871094 401.988281 C 1223.164062 400.378906 1225.328125 399.082031 1225.574219 399.082031 C 1225.882812 399.082031 1226.441406 398.648438 1226.9375 398.089844 C 1228.546875 396.109375 1238.074219 390.601562 1241.722656 389.484375 C 1242.589844 389.238281 1245.003906 388.246094 1247.109375 387.257812 C 1249.210938 386.265625 1251.253906 385.460938 1251.6875 385.460938 C 1252.058594 385.460938 1253.296875 384.90625 1254.347656 384.285156 C 1255.398438 383.605469 1258.058594 382.800781 1260.285156 382.367188 C 1262.515625 381.996094 1265.546875 381.316406 1267.09375 380.820312 C 1268.640625 380.324219 1274.207031 379.519531 1279.53125 379.023438 C 1288.5625 378.160156 1292.214844 377.355469 1293.203125 375.929688 C 1293.824219 375.0625 1294.441406 369.121094 1294.007812 368.070312 C 1293.699219 367.203125 1282.996094 367.078125 1192.039062 366.832031 C 1136.167969 366.644531 1076.953125 366.707031 1060.433594 366.890625 L 1030.421875 367.203125 L 1029.554688 368.996094 C 1027.949219 372.339844 1027.636719 374.878906 1028.753906 375.929688 C 1030.484375 377.726562 1032.773438 378.097656 1044.035156 378.652344 C 1059.691406 379.457031 1063.898438 379.828125 1068.167969 380.820312 C 1070.207031 381.316406 1075.035156 381.996094 1078.933594 382.367188 C 1082.769531 382.738281 1086.730469 383.417969 1087.65625 383.914062 C 1088.585938 384.410156 1091.371094 385.214844 1093.84375 385.710938 C 1096.320312 386.265625 1098.917969 387.070312 1099.660156 387.503906 C 1100.339844 388 1102.320312 388.679688 1104.054688 389.113281 C 1109.066406 390.351562 1114.820312 394.003906 1119.707031 398.894531 C 1122.121094 401.433594 1124.164062 403.847656 1124.164062 404.28125 C 1124.164062 404.714844 1124.71875 405.765625 1125.339844 406.632812 C 1126.019531 407.4375 1126.824219 409.355469 1127.257812 410.839844 C 1127.691406 412.390625 1128.492188 414.742188 1129.113281 416.101562 C 1129.730469 417.464844 1130.414062 421.054688 1130.660156 424.148438 C 1131.09375 430.03125 1130.164062 441.046875 1129.050781 443.152344 C 1128.679688 443.835938 1128 447.175781 1127.503906 450.519531 C 1127.070312 453.921875 1126.390625 457.203125 1126.019531 457.886719 C 1125.648438 458.566406 1124.78125 461.660156 1124.164062 464.757812 C 1123.480469 467.914062 1122.679688 470.761719 1122.367188 471.132812 C 1122.058594 471.503906 1121.503906 473.296875 1121.132812 475.15625 C 1120.757812 477.011719 1119.894531 479.363281 1119.273438 480.417969 C 1118.65625 481.46875 1117.789062 483.699219 1117.417969 485.367188 C 1116.984375 487.039062 1116.117188 489.082031 1115.4375 489.949219 C 1114.820312 490.816406 1114.261719 491.929688 1114.261719 492.488281 C 1114.261719 494.53125 1111.972656 501.402344 1107.582031 512.914062 C 1106.839844 514.710938 1105.847656 516.691406 1105.414062 517.246094 C 1104.917969 517.804688 1104.300781 519.226562 1104.054688 520.40625 C 1103.804688 521.582031 1103.125 523.5625 1102.507812 524.738281 C 1101.824219 525.914062 1100.898438 528.265625 1100.402344 530 C 1098.855469 535.261719 1097 540.398438 1095.761719 542.996094 C 1092.421875 549.992188 1090.195312 554.945312 1089.824219 556.304688 C 1089.574219 557.171875 1089.140625 558.164062 1088.832031 558.535156 C 1088.523438 558.90625 1087.71875 560.703125 1087.101562 562.558594 C 1084.8125 568.996094 1083.015625 573.453125 1082.335938 574.320312 C 1081.964844 574.816406 1081.285156 576.300781 1080.851562 577.660156 C 1080.417969 579.023438 1079.613281 580.695312 1078.996094 581.375 C 1078.4375 582.058594 1077.632812 583.851562 1077.199219 585.398438 C 1076.394531 588.121094 1074.785156 591.960938 1071.816406 598.089844 C 1071.011719 599.820312 1070.332031 601.492188 1070.332031 601.863281 C 1070.332031 602.234375 1069.835938 603.226562 1069.15625 604.03125 C 1068.539062 604.835938 1067.671875 606.632812 1067.238281 607.992188 C 1066.804688 609.355469 1066.125 610.902344 1065.691406 611.398438 C 1065.257812 611.894531 1064.453125 613.6875 1063.957031 615.421875 C 1062.597656 619.691406 1059.8125 626.378906 1058.886719 627.492188 C 1058.453125 627.988281 1057.769531 629.472656 1057.398438 630.710938 C 1056.96875 631.949219 1056.164062 633.621094 1055.542969 634.425781 C 1054.925781 635.230469 1054.058594 636.960938 1053.625 638.324219 C 1053.191406 639.6875 1052.511719 641.234375 1052.078125 641.726562 C 1051.644531 642.222656 1050.964844 643.769531 1050.53125 645.132812 C 1050.097656 646.496094 1049.292969 648.722656 1048.675781 650.085938 C 1048.058594 651.445312 1046.820312 654.230469 1045.890625 656.273438 C 1044.964844 658.316406 1043.417969 661.660156 1042.488281 663.703125 C 1041.5 665.746094 1040.382812 668.59375 1039.953125 670.078125 C 1039.519531 671.503906 1038.835938 672.988281 1038.34375 673.359375 C 1037.910156 673.730469 1037.539062 674.410156 1037.539062 674.78125 C 1037.539062 675.15625 1035.929688 678.804688 1033.949219 682.890625 C 1028.691406 693.664062 1027.207031 696.882812 1026.710938 698.984375 C 1026.523438 699.976562 1025.96875 701.277344 1025.472656 701.769531 C 1025.039062 702.265625 1024.359375 703.753906 1023.925781 705.113281 C 1023.492188 706.414062 1022.378906 709.015625 1021.390625 710.871094 C 1020.398438 712.726562 1019.59375 714.648438 1019.59375 715.078125 C 1019.59375 715.511719 1019.222656 716.195312 1018.726562 716.566406 C 1018.234375 717 1017.675781 718.050781 1017.429688 718.980469 C 1017.242188 719.90625 1016.5 721.765625 1015.882812 723.125 C 1015.261719 724.488281 1014.148438 727.210938 1013.40625 729.132812 C 1012.664062 731.113281 1011.859375 732.722656 1011.550781 732.722656 C 1011.242188 732.722656 1010.871094 733.648438 1010.621094 734.703125 C 1010.25 736.496094 1008.210938 741.261719 1005.550781 746.648438 C 1004.992188 747.640625 1004.0625 749.992188 1003.445312 751.847656 C 1002.828125 753.707031 1002.023438 755.5 1001.714844 755.871094 C 1001.402344 756.242188 1000.847656 757.789062 1000.414062 759.277344 C 1000.042969 760.824219 998.992188 763.050781 998.1875 764.230469 C 997.382812 765.464844 996.699219 766.765625 996.699219 767.136719 C 996.699219 767.507812 996.207031 768.5 995.585938 769.304688 C 994.90625 770.109375 993.855469 772.460938 993.113281 774.503906 C 990.390625 782.425781 989.152344 785.769531 987.976562 788.183594 C 987.359375 789.546875 986.800781 791.09375 986.800781 791.648438 C 986.800781 792.144531 986.121094 793.570312 985.316406 794.746094 C 984.511719 795.984375 983.523438 798.027344 983.089844 799.324219 C 982.65625 800.6875 981.976562 802.171875 981.542969 802.667969 C 981.109375 803.164062 980.429688 804.957031 980.058594 806.691406 C 979.625 808.363281 978.941406 810.34375 978.511719 811.023438 C 978.078125 811.707031 977.335938 813.378906 976.902344 814.738281 C 976.46875 816.101562 975.601562 818.082031 974.984375 819.132812 C 974.300781 820.1875 973.808594 821.484375 973.808594 821.917969 C 973.808594 822.414062 972.816406 824.703125 971.640625 827.058594 C 970.464844 829.472656 969.476562 831.824219 969.476562 832.320312 C 969.476562 832.875 968.734375 834.671875 967.929688 836.402344 C 967.0625 838.074219 966.382812 839.871094 966.382812 840.304688 C 966.382812 840.738281 965.703125 842.46875 964.835938 844.140625 C 963.96875 845.8125 963.289062 847.546875 963.289062 847.917969 C 963.289062 848.597656 961.554688 852.621094 958.277344 859.308594 C 957.660156 860.667969 956.542969 863.453125 955.800781 865.496094 C 953.019531 873.605469 952.152344 875.894531 951.59375 876.578125 C 951.347656 876.949219 950.605469 878.679688 950.046875 880.476562 C 949.429688 882.210938 948.625 884.003906 948.128906 884.375 C 947.632812 884.746094 947.078125 885.984375 946.832031 887.039062 C 946.644531 888.152344 945.777344 890.257812 944.972656 891.804688 C 943.488281 894.652344 942.5625 897.128906 940.023438 904.308594 C 939.28125 906.597656 938.230469 909.074219 937.734375 909.878906 C 937.238281 910.683594 936.621094 912.109375 936.433594 913.097656 C 936.1875 914.089844 935.507812 915.574219 934.886719 916.378906 C 934.207031 917.121094 933.527344 918.792969 933.28125 920.09375 C 933.09375 921.332031 932.226562 923.621094 931.421875 925.167969 C 929.503906 929.007812 926.164062 936.742188 926.164062 937.488281 C 926.164062 937.796875 925.667969 938.726562 925.050781 939.53125 C 924.429688 940.335938 923.566406 942.253906 923.132812 943.800781 C 922.699219 945.347656 921.957031 947.144531 921.523438 947.886719 C 921.089844 948.566406 920.347656 950.421875 919.976562 951.910156 C 919.542969 953.394531 917.6875 957.851562 915.894531 961.75 C 911.191406 971.65625 909.890625 974.441406 907.601562 979.394531 C 906.550781 981.746094 905.375 984.160156 905.066406 984.65625 C 904.753906 985.148438 904.074219 986.386719 903.640625 987.441406 C 903.148438 988.429688 901.601562 991.09375 900.238281 993.320312 C 898.816406 995.546875 897.144531 998.457031 896.464844 999.820312 C 894.050781 1004.585938 892.257812 1007.0625 886.070312 1014.242188 C 876.292969 1025.695312 866.515625 1035.164062 862.433594 1037.269531 C 861.566406 1037.703125 860.328125 1038.632812 859.648438 1039.25 C 857.113281 1041.726562 853.648438 1044.015625 848.636719 1046.554688 C 841.394531 1050.269531 839.601562 1051.257812 838.425781 1052.3125 C 837.3125 1053.300781 830.628906 1056.148438 827.164062 1057.140625 C 825.988281 1057.511719 823.265625 1058.4375 821.164062 1059.304688 C 819.058594 1060.109375 816.769531 1060.792969 816.027344 1060.792969 C 815.285156 1060.792969 813.550781 1061.472656 812.128906 1062.277344 C 810.707031 1063.144531 808.167969 1064.011719 806.4375 1064.195312 C 804.765625 1064.445312 802.230469 1065.125 800.867188 1065.742188 C 799.507812 1066.363281 796.597656 1067.167969 794.371094 1067.601562 C 792.144531 1067.972656 789.113281 1068.652344 787.566406 1069.148438 C 786.019531 1069.644531 781.5625 1070.449219 777.664062 1070.941406 C 773.765625 1071.4375 768.878906 1072.304688 766.835938 1072.800781 C 764.796875 1073.296875 758.113281 1074.039062 751.988281 1074.410156 C 745.863281 1074.84375 737.324219 1075.648438 732.992188 1076.328125 C 722.84375 1077.875 688.195312 1078.0625 679.839844 1076.636719 C 676.996094 1076.144531 669.632812 1075.460938 663.507812 1075.027344 C 637.953125 1073.417969 633.558594 1073.109375 626.753906 1072.242188 C 622.792969 1071.746094 614.128906 1071.066406 607.386719 1070.695312 C 600.703125 1070.386719 593.21875 1069.644531 590.742188 1069.148438 C 588.265625 1068.589844 582.078125 1067.910156 576.945312 1067.601562 C 565.992188 1066.917969 561.785156 1066.425781 560.421875 1065.742188 C 559.929688 1065.433594 555.90625 1064.875 551.453125 1064.503906 C 547.058594 1064.132812 539.882812 1063.265625 535.425781 1062.585938 C 518.90625 1060.109375 462.351562 1059.554688 449.109375 1061.71875 C 446.203125 1062.214844 439.828125 1063.019531 434.878906 1063.578125 C 429.929688 1064.132812 425.101562 1065 424.050781 1065.558594 C 419.472656 1067.972656 412.542969 1068.28125 411.242188 1066.175781 C 410.75 1065.371094 413.84375 1062.214844 420.773438 1056.273438 C 424.671875 1052.992188 428.382812 1049.277344 431.042969 1046.121094 C 433.519531 1043.089844 436.117188 1039.558594 436.117188 1039.1875 C 436.117188 1039.003906 436.796875 1038.011719 437.664062 1037.023438 C 438.53125 1036.03125 439.210938 1034.980469 439.210938 1034.730469 C 439.210938 1034.484375 439.890625 1033.492188 440.695312 1032.503906 C 441.5 1031.511719 443.355469 1028.355469 444.839844 1025.507812 C 446.265625 1022.597656 447.8125 1019.8125 448.246094 1019.320312 C 448.617188 1018.824219 449.171875 1017.523438 449.421875 1016.410156 C 449.605469 1015.292969 450.347656 1013.746094 450.96875 1013.003906 C 451.585938 1012.199219 452.390625 1010.28125 452.824219 1008.796875 C 453.257812 1007.246094 454.0625 1005.019531 454.679688 1003.84375 C 455.238281 1002.667969 456.101562 999.757812 456.472656 997.40625 C 456.90625 995.054688 457.585938 992.207031 458.082031 991.03125 C 458.578125 989.914062 459.257812 987.441406 459.566406 985.519531 C 459.9375 983.601562 460.679688 981.1875 461.175781 980.136719 C 461.671875 979.144531 462.414062 976.421875 462.785156 974.191406 C 463.15625 971.964844 463.960938 968.871094 464.578125 967.324219 C 465.199219 965.773438 466.003906 962 466.375 958.964844 C 466.808594 955.871094 467.488281 951.972656 467.984375 950.300781 C 468.476562 948.566406 469.28125 942.996094 469.839844 937.917969 C 470.394531 932.78125 471.078125 927.769531 471.449219 926.777344 C 471.757812 925.726562 472.4375 921.144531 472.933594 916.503906 C 473.367188 911.859375 474.230469 907.03125 474.726562 905.730469 C 475.285156 904.433594 476.027344 900.039062 476.335938 895.890625 C 476.707031 891.742188 477.386719 886.851562 477.820312 884.996094 C 478.316406 883.136719 478.871094 879.796875 479.058594 877.566406 C 480.296875 863.886719 480.851562 859.183594 481.59375 857.078125 C 482.089844 855.839844 482.769531 851.445312 483.140625 847.421875 C 483.511719 843.398438 484.195312 838.695312 484.6875 836.960938 C 485.183594 835.226562 485.863281 831.082031 486.234375 827.675781 C 486.605469 824.332031 487.410156 819.753906 488.09375 817.523438 C 488.710938 815.296875 489.578125 810.21875 489.886719 806.257812 C 490.257812 802.296875 491 797.160156 491.496094 794.808594 C 491.988281 792.515625 492.792969 786.078125 493.289062 780.570312 C 493.785156 775.0625 494.527344 769.921875 494.898438 769.242188 C 495.269531 768.5 496.011719 764.414062 496.507812 760.144531 C 497 755.871094 497.804688 751.414062 498.363281 750.175781 C 498.859375 749 499.476562 744.359375 499.847656 739.902344 C 500.15625 735.445312 500.839844 730.554688 501.332031 729.007812 C 501.828125 727.460938 502.695312 721.207031 503.25 715.078125 C 503.808594 708.953125 504.613281 702.390625 505.105469 700.535156 C 505.601562 698.675781 506.28125 693.910156 506.652344 690.011719 C 507.027344 686.109375 507.890625 681.097656 508.511719 678.867188 C 509.128906 676.640625 509.808594 672.492188 510.058594 669.707031 C 510.242188 666.859375 510.921875 662.960938 511.605469 661.042969 C 512.285156 659.058594 513.089844 654.109375 513.460938 649.714844 C 513.832031 645.441406 514.386719 640.984375 514.761719 639.808594 C 515.070312 638.632812 515.933594 632.320312 516.554688 625.695312 C 517.234375 619.136719 518.039062 612.882812 518.410156 611.769531 C 518.71875 610.714844 519.402344 605.886719 519.894531 601.121094 C 520.390625 596.292969 521.007812 591.835938 521.378906 591.21875 C 522.0625 589.792969 523.175781 583.480469 523.667969 577.785156 C 523.855469 575.433594 524.414062 572.402344 524.90625 570.976562 C 525.339844 569.554688 526.082031 565.035156 526.453125 560.949219 C 526.824219 556.863281 527.566406 551.417969 528.0625 548.878906 C 528.496094 546.339844 529.363281 540.769531 529.855469 536.5 C 530.414062 532.226562 531.21875 527.335938 531.714844 525.664062 C 532.207031 523.933594 532.890625 519.476562 533.261719 515.761719 C 533.632812 511.984375 534.496094 507.34375 535.117188 505.363281 C 535.796875 503.382812 536.601562 498.617188 536.972656 494.777344 C 537.28125 490.941406 537.902344 486.113281 538.457031 484.132812 C 538.953125 482.148438 539.695312 477.382812 540.066406 473.667969 C 540.5 469.894531 541.242188 465.871094 541.675781 464.695312 C 542.171875 463.519531 542.914062 460.363281 543.46875 457.636719 C 543.964844 454.976562 544.644531 452.5 544.953125 452.066406 C 545.265625 451.695312 545.945312 449.777344 546.441406 447.796875 C 546.996094 445.753906 547.800781 443.710938 548.234375 443.152344 C 548.730469 442.535156 549.472656 440.988281 549.90625 439.625 C 551.699219 434.238281 556.152344 425.078125 558.011719 422.910156 C 558.628906 422.230469 559.433594 420.992188 559.867188 420.125 C 561.105469 417.652344 568.15625 408.921875 571.066406 406.136719 C 572.550781 404.773438 575.582031 402.113281 577.808594 400.257812 C 586.285156 393.136719 587.585938 392.332031 598.539062 387.257812 C 601.632812 385.894531 604.789062 384.347656 605.652344 383.914062 C 606.519531 383.480469 608.746094 382.800781 610.605469 382.367188 C 612.460938 381.933594 614.316406 381.316406 614.6875 381.003906 C 615.121094 380.757812 618.152344 379.953125 621.492188 379.335938 C 624.898438 378.652344 628.363281 377.847656 629.226562 377.539062 C 630.09375 377.167969 633.558594 376.609375 636.960938 376.175781 C 640.304688 375.804688 645.4375 374.9375 648.347656 374.320312 C 651.253906 373.703125 657.378906 372.898438 661.960938 372.523438 C 673.652344 371.597656 703.042969 370.484375 704.28125 370.976562 C 706.074219 371.660156 715.730469 370.605469 716.71875 369.554688 C 718.140625 368.191406 718.019531 360.949219 716.59375 360.453125 C 714.984375 359.835938 352.152344 359.464844 348.316406 360.082031 Z M 348.316406 360.082031 " fill-opacity="1" fill-rule="nonzero"/><path fill="#000000" d="M 692.585938 397.84375 C 689.183594 398.152344 684.296875 398.769531 681.757812 399.265625 C 679.222656 399.824219 675.449219 400.441406 673.40625 400.628906 C 671.363281 400.875 668.457031 401.433594 666.910156 401.929688 C 665.363281 402.359375 661.21875 403.164062 657.628906 403.722656 C 648.347656 405.085938 632.753906 409.976562 629.414062 412.636719 C 628.484375 413.316406 627.308594 413.9375 626.691406 413.9375 C 626.070312 413.9375 624.957031 414.429688 624.152344 415.050781 C 623.351562 415.667969 620.441406 417.21875 617.71875 418.578125 C 612.707031 421.054688 606.519531 425.945312 601.261719 431.578125 C 597.425781 435.601562 594.515625 439.316406 594.515625 440.058594 C 594.515625 440.429688 594.019531 441.421875 593.339844 442.285156 C 590.804688 445.875 584.800781 458.378906 584.367188 460.917969 C 584.183594 462.402344 583.503906 464.445312 582.945312 465.5625 C 581.398438 468.347656 581.398438 481.65625 582.882812 483.882812 C 583.441406 484.75 584.246094 486.792969 584.679688 488.527344 C 585.050781 490.195312 585.792969 492.054688 586.285156 492.609375 C 586.78125 493.230469 587.523438 495.085938 588.019531 496.882812 C 588.453125 498.617188 589.195312 500.410156 589.566406 500.90625 C 590.433594 501.957031 592.96875 508.765625 594.578125 514.523438 C 595.257812 516.875 596.1875 519.289062 596.621094 519.785156 C 597.113281 520.28125 597.796875 521.703125 598.167969 522.941406 C 598.539062 524.179688 599.402344 526.222656 600.085938 527.523438 C 600.765625 528.882812 601.324219 530.371094 601.324219 530.925781 C 601.324219 531.421875 601.878906 532.910156 602.496094 534.085938 C 603.179688 535.324219 604.167969 537.921875 604.726562 539.839844 C 605.28125 541.761719 606.148438 544.113281 606.582031 544.980469 C 607.078125 545.84375 607.757812 548.011719 608.191406 549.746094 C 608.5625 551.476562 609.429688 553.582031 610.046875 554.386719 C 610.726562 555.191406 611.222656 556.183594 611.222656 556.617188 C 611.222656 557.050781 611.839844 558.597656 612.644531 560.082031 C 613.449219 561.566406 614.441406 564.167969 614.871094 565.902344 C 615.304688 567.570312 615.925781 569.304688 616.234375 569.675781 C 616.542969 570.046875 617.285156 572.027344 617.964844 574.070312 C 618.585938 576.050781 619.699219 578.839844 620.441406 580.199219 C 621.183594 581.5 621.742188 583.046875 621.742188 583.542969 C 621.742188 584.039062 622.484375 585.585938 623.289062 586.945312 C 624.152344 588.308594 624.835938 589.792969 624.835938 590.289062 C 624.835938 590.785156 625.390625 592.332031 626.070312 593.695312 C 626.691406 595.117188 627.804688 597.902344 628.484375 599.945312 C 630.960938 607.4375 632.136719 610.53125 633.746094 613.503906 C 634.609375 615.171875 635.351562 616.90625 635.351562 617.339844 C 635.351562 617.773438 636.035156 619.445312 636.898438 621.054688 C 637.765625 622.664062 638.445312 624.394531 638.445312 624.953125 C 638.445312 625.511719 638.941406 626.933594 639.5625 628.109375 C 640.242188 629.285156 641.046875 631.640625 641.480469 633.371094 C 641.914062 635.042969 642.59375 637.023438 643.027344 637.703125 C 643.460938 638.386719 644.324219 640.304688 644.945312 642.039062 C 645.625 643.710938 646.613281 645.9375 647.234375 646.988281 C 647.851562 647.980469 648.347656 649.21875 648.347656 649.714844 C 648.347656 650.207031 648.902344 651.757812 649.523438 653.117188 C 650.699219 655.59375 652.492188 660.359375 654.285156 665.871094 C 654.78125 667.417969 655.710938 669.769531 656.390625 671.132812 C 657.007812 672.492188 658.554688 675.710938 659.730469 678.3125 C 660.96875 680.910156 661.960938 683.324219 661.960938 683.757812 C 661.960938 684.191406 662.515625 685.675781 663.136719 687.101562 C 664.433594 690.011719 666.476562 695.519531 667.898438 700.222656 C 668.765625 703.195312 671.550781 709.445312 673.46875 713.039062 C 673.964844 713.964844 674.828125 716.195312 675.386719 717.988281 C 675.882812 719.785156 676.5625 721.515625 676.808594 721.890625 C 677.058594 722.199219 677.738281 724.117188 678.292969 726.097656 C 678.851562 728.078125 679.902344 730.554688 680.523438 731.667969 C 681.203125 732.785156 681.757812 734.207031 681.757812 734.824219 C 681.757812 735.507812 682.441406 737.179688 683.246094 738.539062 C 684.046875 739.964844 685.039062 742.191406 685.472656 743.554688 C 685.90625 744.914062 686.523438 746.402344 686.894531 746.835938 C 687.203125 747.269531 688.007812 749.3125 688.628906 751.476562 C 691.289062 760.636719 692.957031 765.035156 696.484375 772.027344 C 697.476562 774.070312 699.640625 779.640625 701.929688 786.203125 C 702.734375 788.492188 703.664062 790.722656 703.972656 791.15625 C 704.34375 791.527344 704.902344 793.257812 705.273438 794.867188 C 705.644531 796.539062 706.507812 798.582031 707.128906 799.449219 C 707.808594 800.253906 708.367188 801.429688 708.367188 801.988281 C 708.367188 802.542969 708.921875 804.152344 709.601562 805.453125 C 710.285156 806.816406 711.273438 809.230469 711.707031 810.777344 C 712.203125 812.324219 713.128906 814.675781 713.808594 816.039062 C 714.429688 817.339844 715.234375 819.566406 715.417969 820.929688 C 715.667969 822.289062 716.410156 824.210938 717.027344 825.261719 C 717.585938 826.253906 718.449219 828.234375 718.882812 829.59375 C 719.316406 830.957031 719.996094 832.503906 720.492188 833 C 720.925781 833.496094 721.605469 835.289062 722.039062 837.023438 C 722.472656 838.695312 723.152344 840.675781 723.585938 841.355469 C 724.019531 842.035156 724.699219 843.957031 725.132812 845.6875 C 725.566406 847.359375 726.371094 849.589844 726.988281 850.640625 C 727.609375 851.632812 728.414062 853.734375 728.785156 855.285156 C 729.21875 856.832031 729.898438 858.503906 730.332031 858.996094 C 730.765625 859.492188 731.691406 861.472656 732.371094 863.332031 C 733.054688 865.1875 734.476562 869.085938 735.589844 871.996094 C 736.640625 874.90625 737.941406 878.621094 738.5 880.351562 C 739.054688 882.023438 739.984375 884.128906 740.601562 884.996094 C 741.222656 885.863281 742.023438 887.78125 742.398438 889.328125 C 742.828125 890.875 743.511719 892.546875 743.941406 893.042969 C 744.375 893.539062 745.058594 895.085938 745.429688 896.445312 C 745.800781 897.808594 746.480469 899.480469 746.976562 900.222656 C 747.46875 900.902344 748.210938 902.882812 748.644531 904.554688 C 749.078125 906.226562 749.882812 908.578125 750.503906 909.753906 C 751.058594 910.992188 751.738281 913.285156 751.988281 914.832031 C 752.234375 916.5625 753.039062 918.421875 753.84375 919.289062 C 754.648438 920.15625 755.453125 921.703125 755.699219 922.816406 C 755.945312 923.867188 756.628906 925.664062 757.246094 926.714844 C 757.863281 927.769531 758.667969 930.121094 759.101562 931.914062 C 759.535156 933.648438 760.09375 935.320312 760.402344 935.503906 C 760.710938 935.691406 761.390625 937.425781 761.949219 939.34375 C 762.503906 941.261719 763.308594 943.429688 763.742188 944.171875 C 764.175781 944.851562 764.980469 946.957031 765.539062 948.753906 C 766.09375 950.546875 766.898438 952.464844 767.394531 953.023438 C 768.199219 953.953125 769.25 956.429688 772.15625 964.847656 C 772.777344 966.703125 773.582031 968.746094 773.953125 969.363281 C 774.324219 969.921875 775.003906 972.273438 775.5625 974.503906 C 776.054688 976.792969 776.859375 979.023438 777.355469 979.515625 C 777.851562 979.949219 778.59375 981.558594 778.964844 982.984375 C 779.398438 984.40625 780.203125 986.140625 780.820312 986.820312 C 781.378906 987.5 782.058594 989.050781 782.304688 990.226562 C 782.554688 991.402344 783.296875 993.382812 783.914062 994.621094 C 784.53125 995.859375 785.335938 998.210938 785.769531 999.882812 C 786.203125 1001.554688 786.882812 1003.472656 787.316406 1004.152344 C 787.75 1004.832031 788.429688 1006.753906 788.863281 1008.484375 C 789.234375 1010.15625 790.289062 1012.695312 791.03125 1014.117188 C 791.835938 1015.480469 792.515625 1017.089844 792.515625 1017.585938 C 792.515625 1018.082031 793.011719 1019.195312 793.691406 1020 C 794.308594 1020.804688 795.238281 1022.847656 795.792969 1024.578125 C 796.289062 1026.25 797.464844 1029.46875 798.269531 1031.699219 L 799.816406 1035.722656 L 803.28125 1035.660156 C 805.199219 1035.597656 807.054688 1035.289062 807.488281 1034.917969 C 807.921875 1034.609375 809.964844 1033.804688 811.945312 1033.246094 C 813.984375 1032.625 816.460938 1031.636719 817.511719 1031.015625 C 818.5625 1030.398438 819.800781 1029.839844 820.296875 1029.839844 C 821.597656 1029.839844 830.507812 1025.382812 831.0625 1024.457031 C 831.308594 1024.023438 832.609375 1023.09375 833.847656 1022.414062 C 835.085938 1021.671875 837.3125 1020.371094 838.671875 1019.441406 C 840.097656 1018.515625 842.449219 1016.964844 843.933594 1015.976562 C 847.335938 1013.746094 861.816406 999.140625 861.816406 997.964844 C 861.816406 997.46875 862.371094 996.785156 862.988281 996.414062 C 863.671875 996.105469 864.597656 995.117188 865.03125 994.3125 C 865.464844 993.507812 866.949219 991.214844 868.3125 989.234375 C 869.671875 987.191406 871.34375 984.53125 872.023438 983.292969 C 876.480469 974.996094 878.398438 971.097656 878.769531 969.363281 C 879.015625 968.3125 879.632812 967.074219 880.066406 966.703125 C 880.5625 966.332031 881.242188 964.96875 881.675781 963.730469 C 882.046875 962.496094 882.789062 961.007812 883.222656 960.511719 C 883.65625 959.957031 884.460938 958.285156 885.015625 956.800781 C 885.574219 955.3125 886.441406 953.519531 887.058594 952.898438 C 887.800781 952.03125 888.171875 950.363281 888.296875 946.957031 C 888.484375 942.871094 888.296875 941.882812 886.9375 939.28125 C 886.070312 937.671875 885.328125 935.9375 885.328125 935.503906 C 885.328125 935.074219 884.644531 933.464844 883.902344 931.976562 C 883.097656 930.492188 882.046875 928.140625 881.613281 926.777344 C 881.179688 925.417969 880.625 923.992188 880.316406 923.683594 C 880.066406 923.3125 879.261719 920.960938 878.582031 918.484375 C 877.902344 915.945312 876.910156 913.34375 876.417969 912.601562 C 875.984375 911.859375 875.242188 909.695312 874.808594 907.710938 C 874.4375 905.792969 873.878906 904.183594 873.570312 904.183594 C 873.261719 904.183594 872.582031 902.699219 872.023438 900.902344 C 871.46875 899.171875 870.476562 896.695312 869.796875 895.457031 C 869.175781 894.21875 868.621094 892.734375 868.621094 892.175781 C 868.621094 891.679688 867.941406 889.761719 867.199219 887.90625 C 866.394531 886.109375 865.339844 883.199219 864.96875 881.46875 C 864.535156 879.671875 863.792969 877.9375 863.363281 877.566406 C 862.867188 877.132812 862.0625 875.402344 861.566406 873.542969 C 861.011719 871.75 860.207031 869.953125 859.710938 869.582031 C 859.277344 869.210938 858.535156 867.539062 858.101562 865.929688 C 857.730469 864.320312 857.113281 862.710938 856.800781 862.339844 C 856.183594 861.597656 853.648438 854.480469 851.976562 848.722656 C 851.359375 846.617188 850.304688 844.078125 849.5625 843.027344 C 848.820312 842.035156 848.203125 840.796875 848.203125 840.304688 C 848.203125 839.871094 847.519531 838.074219 846.65625 836.402344 C 845.851562 834.671875 845.109375 832.875 845.109375 832.378906 C 845.109375 831.886719 844.425781 829.964844 843.5625 828.171875 C 842.757812 826.4375 841.890625 823.898438 841.644531 822.601562 C 841.394531 821.363281 840.589844 819.070312 839.789062 817.523438 C 838.984375 815.976562 838.300781 814.304688 838.300781 813.75 C 838.300781 813.191406 837.496094 811.210938 836.445312 809.292969 C 835.457031 807.371094 834.589844 805.453125 834.589844 805.019531 C 834.589844 804.527344 834.09375 803.226562 833.476562 802.050781 C 832.855469 800.875 831.929688 798.460938 831.496094 796.789062 C 831.0625 795.054688 830.320312 793.136719 829.886719 792.453125 C 829.453125 791.773438 828.773438 789.792969 828.339844 788.121094 C 827.96875 786.390625 827.101562 784.160156 826.546875 783.167969 C 825.925781 782.117188 825.308594 780.445312 825.0625 779.457031 C 824.8125 778.402344 823.886719 775.925781 822.894531 773.886719 C 820.667969 769.117188 818.875 764.785156 817.574219 760.886719 C 815.160156 753.644531 813.800781 750.300781 812.808594 748.816406 C 812.253906 747.949219 811.574219 746.402344 811.324219 745.410156 C 811.078125 744.359375 810.398438 742.5625 809.777344 741.386719 C 807.921875 737.734375 805.074219 730.058594 804.582031 727.460938 C 804.394531 726.097656 803.652344 724.117188 803.035156 723.125 C 802.476562 722.074219 801.609375 720.15625 801.175781 718.792969 C 800.746094 717.433594 800 716.007812 799.570312 715.511719 C 799.074219 715.078125 798.394531 713.53125 798.023438 712.109375 C 797.652344 710.683594 797.03125 708.953125 796.660156 708.269531 C 795.671875 706.601562 792.699219 697.996094 791.464844 693.414062 C 790.90625 691.371094 790.101562 689.269531 789.605469 688.710938 C 789.171875 688.152344 788.371094 686.359375 787.9375 684.6875 C 787.007812 681.46875 784.347656 674.660156 782.984375 672.058594 C 782.554688 671.191406 781.871094 669.210938 781.4375 667.601562 C 781.066406 665.992188 780.078125 663.394531 779.210938 661.785156 C 778.34375 660.175781 777.664062 658.253906 777.664062 657.511719 C 777.664062 656.769531 777.109375 655.65625 776.488281 655.097656 C 775.808594 654.480469 775.066406 653.117188 774.878906 652.003906 C 774.632812 650.953125 773.953125 649.21875 773.332031 648.167969 C 772.714844 647.113281 771.726562 644.574219 771.167969 642.59375 C 770.609375 640.550781 769.867188 638.632812 769.621094 638.324219 C 769.375 637.953125 768.691406 636.21875 768.136719 634.363281 C 767.578125 632.503906 766.773438 630.402344 766.28125 629.65625 C 765.785156 628.914062 764.980469 626.933594 764.484375 625.261719 C 763.929688 623.589844 762.9375 621.117188 762.257812 619.753906 C 761.515625 618.453125 760.957031 616.90625 760.957031 616.347656 C 760.957031 615.855469 760.402344 614.367188 759.722656 613.128906 C 759.039062 611.894531 758.175781 609.539062 757.804688 607.867188 C 757.371094 606.257812 756.566406 603.90625 756.007812 602.730469 C 755.390625 601.554688 754.769531 599.511719 754.523438 598.273438 C 754.277344 596.976562 753.65625 595.550781 753.164062 594.992188 C 752.605469 594.4375 751.554688 592.269531 750.75 590.164062 C 749.945312 588.0625 748.582031 584.347656 747.65625 581.996094 C 746.726562 579.582031 745.429688 575.679688 744.808594 573.328125 C 744.191406 570.914062 743.078125 568.003906 742.398438 566.765625 C 741.714844 565.53125 741.160156 563.980469 741.160156 563.300781 C 741.160156 562.683594 740.476562 561.195312 739.613281 560.019531 C 738.746094 558.84375 738.066406 557.484375 738.066406 556.925781 C 738.066406 556.367188 737.382812 554.574219 736.582031 552.839844 C 735.714844 551.167969 734.476562 548.136719 733.734375 546.09375 C 732.992188 544.050781 731.878906 540.957031 731.257812 539.160156 C 730.640625 537.425781 729.710938 535.324219 729.21875 534.519531 C 728.660156 533.773438 727.917969 531.855469 727.546875 530.308594 C 727.113281 528.761719 726.554688 527.335938 726.246094 527.152344 C 725.691406 526.84375 723.523438 521.394531 721.605469 515.453125 C 721.050781 513.90625 720.121094 511.242188 719.441406 509.570312 C 718.699219 507.839844 717.894531 505.488281 717.523438 504.308594 C 717.214844 503.132812 716.472656 501.710938 715.976562 501.152344 C 715.480469 500.535156 714.738281 498.675781 714.242188 496.882812 C 713.808594 495.148438 713.128906 493.355469 712.757812 492.921875 C 712.140625 492.179688 710.34375 487.289062 707.746094 479.242188 C 707.066406 477.199219 705.953125 474.414062 705.273438 473.050781 C 704.589844 471.75 704.035156 470.203125 704.035156 469.644531 C 704.035156 469.152344 703.539062 467.726562 702.859375 466.550781 C 702.238281 465.375 701.375 463.269531 700.941406 461.910156 C 700.507812 460.546875 699.703125 458.566406 699.085938 457.574219 C 698.464844 456.523438 697.660156 454.109375 697.226562 452.191406 C 696.855469 450.210938 696.300781 448.476562 695.929688 448.289062 C 695.621094 448.105469 694.9375 446.308594 694.382812 444.390625 C 693.824219 442.472656 693.144531 440.554688 692.835938 440.183594 C 691.84375 438.945312 688.441406 430.339844 687.390625 426.316406 C 686.769531 424.089844 685.96875 421.675781 685.59375 420.929688 C 684.480469 418.886719 684.667969 414.925781 685.96875 413.8125 C 689.183594 411.089844 700.570312 408.488281 716.101562 407.066406 C 720.183594 406.632812 723.894531 406.074219 724.328125 405.703125 C 725.503906 404.773438 725.320312 398.089844 724.082031 397.59375 C 722.78125 397.101562 700.320312 397.285156 692.585938 397.84375 Z M 692.585938 397.84375 " fill-opacity="1" fill-rule="nonzero"/><path fill="#000000" d="M 989.152344 954.507812 C 988.222656 956.242188 986.925781 958.964844 986.246094 960.511719 C 985.5625 962.0625 984.699219 963.730469 984.386719 964.226562 C 983.832031 965.09375 983.460938 966.207031 980.488281 975.058594 C 979.808594 977.101562 978.757812 979.886719 978.140625 981.25 C 977.519531 982.613281 976.714844 984.777344 976.28125 986.015625 C 975.910156 987.316406 975.292969 988.492188 975.046875 988.679688 C 974.734375 988.863281 974.179688 990.226562 973.808594 991.648438 C 973.375 993.074219 972.445312 995.238281 971.640625 996.414062 C 970.835938 997.589844 970.03125 999.574219 969.785156 1000.75 C 969.539062 1001.925781 968.980469 1003.472656 968.609375 1004.152344 C 968.175781 1004.832031 967.3125 1006.9375 966.691406 1008.796875 C 966.074219 1010.652344 965.207031 1012.757812 964.835938 1013.4375 C 964.402344 1014.117188 963.722656 1015.789062 963.289062 1017.152344 C 962.855469 1018.515625 962.175781 1020.0625 961.742188 1020.554688 C 961.308594 1021.050781 960.566406 1022.722656 960.132812 1024.269531 C 959.699219 1025.816406 958.710938 1028.109375 957.90625 1029.347656 C 957.101562 1030.644531 956.484375 1031.945312 956.484375 1032.253906 C 956.484375 1033.679688 951.222656 1046.246094 948.066406 1052.3125 C 947.261719 1053.921875 946.582031 1055.53125 946.582031 1055.902344 C 946.582031 1056.210938 945.59375 1058.6875 944.355469 1061.285156 C 940.085938 1070.386719 939.777344 1071.128906 939.777344 1071.996094 C 939.777344 1072.492188 939.097656 1074.222656 938.230469 1075.957031 C 937.425781 1077.628906 936.683594 1079.484375 936.683594 1080.042969 C 936.683594 1080.597656 936.0625 1082.023438 935.257812 1083.199219 C 934.457031 1084.3125 933.464844 1086.605469 933.03125 1088.273438 C 932.660156 1089.882812 931.050781 1093.722656 929.566406 1096.816406 C 928.082031 1099.851562 926.660156 1103.132812 926.472656 1104.121094 C 926.226562 1105.113281 925.605469 1106.535156 924.988281 1107.339844 C 924.371094 1108.144531 923.503906 1109.878906 923.070312 1111.238281 C 922.636719 1112.601562 921.957031 1114.148438 921.523438 1114.644531 C 921.089844 1115.140625 920.410156 1116.6875 919.976562 1118.050781 C 919.542969 1119.410156 918.492188 1121.699219 917.6875 1123.1875 C 915.707031 1126.589844 916.078125 1128.882812 918.675781 1128.882812 C 921.832031 1128.882812 932.539062 1126.34375 935.878906 1124.796875 C 937.734375 1123.992188 939.40625 1123.308594 939.652344 1123.308594 C 940.269531 1123.308594 945.34375 1118.730469 945.34375 1118.171875 C 945.34375 1117.988281 946.210938 1116.441406 947.203125 1114.832031 C 948.253906 1113.222656 949.058594 1111.363281 949.058594 1110.683594 C 949.121094 1109.941406 949.550781 1108.269531 950.046875 1106.90625 C 950.605469 1105.546875 951.472656 1102.203125 952.089844 1099.480469 C 952.707031 1096.753906 953.511719 1093.96875 953.882812 1093.226562 C 954.253906 1092.484375 954.996094 1089.945312 955.492188 1087.53125 C 955.988281 1085.117188 956.792969 1082.519531 957.347656 1081.714844 C 957.84375 1080.910156 958.585938 1078.183594 959.019531 1075.648438 C 959.390625 1073.109375 960.070312 1070.261719 960.566406 1069.394531 C 961 1068.527344 961.679688 1065.867188 962.050781 1063.515625 C 962.484375 1061.164062 963.472656 1057.261719 964.277344 1054.789062 C 965.082031 1052.371094 965.765625 1049.898438 965.765625 1049.339844 C 965.765625 1048.84375 966.320312 1047.296875 967 1045.933594 C 967.683594 1044.574219 968.546875 1042.035156 968.917969 1040.242188 C 969.351562 1038.445312 970.15625 1036.339844 970.777344 1035.535156 C 971.394531 1034.730469 972.074219 1032.8125 972.324219 1031.203125 C 972.570312 1029.59375 973.375 1026.5 974.117188 1024.269531 C 974.921875 1022.042969 975.726562 1019.007812 975.972656 1017.460938 C 976.21875 1015.914062 976.777344 1013.996094 977.210938 1013.128906 C 977.644531 1012.261719 978.324219 1009.910156 978.757812 1007.867188 C 979.128906 1005.824219 979.871094 1003.535156 980.367188 1002.792969 C 980.859375 1002.046875 981.605469 999.695312 982.097656 997.652344 C 982.59375 995.546875 983.460938 993.195312 983.953125 992.390625 C 984.511719 991.523438 985.253906 989.421875 985.625 987.625 C 985.933594 985.832031 986.738281 983.105469 987.421875 981.558594 C 988.78125 978.21875 990.945312 971.71875 991.875 968.25 C 992.183594 966.890625 993.050781 964.660156 993.667969 963.238281 C 994.351562 961.875 995.277344 959.335938 995.710938 957.542969 C 996.640625 954.136719 996.390625 953.582031 993.175781 951.910156 C 991.132812 950.855469 990.945312 950.980469 989.152344 954.507812 Z M 989.152344 954.507812 " fill-opacity="1" fill-rule="nonzero"/></svg>