<?xml version="1.0" standalone="no"?>
<!DOCTYPE svg PUBLIC "-//W3C//DTD SVG 20010904//EN"
 "http://www.w3.org/TR/2001/REC-SVG-20010904/DTD/svg10.dtd">
<svg version="1.0" xmlns="http://www.w3.org/2000/svg"
 width="2000.000000pt" height="1500.000000pt" viewBox="0 0 2000.000000 1500.000000"
 preserveAspectRatio="xMidYMid meet">

<g transform="translate(0.000000,1500.000000) scale(0.100000,-0.100000)"
fill="#FFF" stroke="none">
<path d="M3511 13800 c-29 -4 -57 -12 -63 -18 -17 -17 -22 -116 -7 -128 8 -6
97 -19 199 -29 281 -27 547 -74 660 -117 139 -52 196 -87 281 -172 115 -114
139 -176 179 -466 12 -83 12 -272 0 -375 -5 -44 -16 -154 -25 -245 -17 -192
-25 -247 -36 -278 -5 -12 -13 -84 -19 -160 -6 -75 -20 -175 -30 -222 -10 -47
-24 -130 -29 -186 -6 -55 -17 -116 -25 -135 -7 -19 -21 -106 -30 -195 -9 -88
-21 -176 -26 -195 -6 -19 -17 -104 -25 -189 -9 -85 -22 -175 -30 -200 -8 -25
-19 -98 -25 -163 -6 -65 -17 -134 -25 -153 -8 -19 -19 -83 -25 -142 -7 -59
-20 -143 -30 -187 -10 -44 -23 -134 -30 -200 -6 -66 -18 -151 -26 -190 -8 -38
-21 -137 -29 -218 -8 -81 -19 -156 -25 -167 -6 -10 -17 -81 -25 -157 -8 -77
-21 -156 -30 -176 -9 -22 -20 -96 -26 -175 -5 -75 -16 -168 -24 -207 -7 -38
-19 -115 -25 -170 -6 -55 -17 -129 -26 -165 -8 -36 -21 -121 -30 -190 -8 -69
-21 -148 -29 -176 -8 -27 -21 -112 -30 -188 -8 -75 -20 -146 -25 -157 -6 -11
-18 -93 -26 -182 -8 -89 -21 -198 -29 -242 -7 -44 -21 -137 -30 -208 -9 -70
-22 -144 -29 -165 -8 -21 -17 -83 -21 -138 -4 -54 -16 -133 -26 -174 -11 -41
-24 -129 -30 -195 -5 -66 -16 -146 -24 -178 -8 -32 -22 -126 -30 -210 -8 -84
-20 -168 -25 -186 -5 -19 -17 -91 -25 -160 -9 -69 -22 -146 -30 -171 -8 -25
-21 -102 -30 -172 -8 -70 -20 -140 -26 -155 -6 -15 -17 -93 -25 -173 -8 -80
-21 -179 -29 -220 -8 -41 -19 -130 -25 -198 -6 -67 -18 -144 -25 -170 -8 -26
-19 -84 -25 -129 -6 -46 -19 -111 -30 -145 -11 -35 -24 -105 -30 -155 -5 -51
-17 -112 -25 -136 -8 -24 -22 -77 -30 -118 -26 -132 -111 -387 -139 -418 -8
-9 -18 -34 -22 -55 -14 -80 -104 -243 -215 -391 -16 -22 -42 -58 -56 -80 -36
-54 -240 -255 -284 -280 -20 -11 -62 -37 -94 -59 -81 -54 -174 -102 -215 -111
-19 -4 -51 -15 -70 -25 -19 -9 -57 -23 -85 -29 -27 -7 -57 -19 -66 -27 -9 -8
-45 -19 -80 -25 -35 -5 -80 -16 -100 -23 -19 -8 -89 -22 -155 -30 -65 -9 -146
-23 -179 -31 -33 -7 -109 -17 -170 -20 -65 -4 -119 -13 -132 -21 -28 -17 -47
-76 -39 -119 6 -31 10 -34 54 -41 26 -4 142 -2 257 5 116 7 395 16 620 21 226
6 545 15 710 21 440 17 1254 22 1340 8 39 -6 194 -15 345 -20 151 -5 309 -13
350 -18 41 -5 157 -18 257 -30 178 -21 277 -36 292 -45 4 -3 62 -10 129 -16
67 -6 146 -17 176 -25 29 -8 111 -21 182 -30 71 -9 154 -22 184 -30 30 -8 95
-19 144 -25 49 -6 107 -17 130 -25 23 -8 88 -21 145 -30 56 -8 115 -21 129
-29 15 -8 68 -19 118 -25 49 -6 112 -18 140 -26 27 -8 90 -21 139 -29 50 -8
103 -20 120 -26 16 -6 67 -18 113 -26 46 -8 96 -20 110 -28 15 -7 59 -19 97
-26 39 -7 85 -19 103 -26 18 -7 76 -21 129 -30 53 -9 113 -22 133 -29 21 -7
73 -19 116 -25 43 -7 95 -18 114 -25 19 -8 62 -19 95 -25 33 -6 87 -20 120
-30 33 -10 101 -24 150 -31 50 -6 107 -18 129 -25 21 -8 79 -19 130 -24 50 -6
129 -19 176 -29 47 -11 119 -22 160 -26 41 -3 113 -15 160 -25 47 -11 135 -24
195 -30 61 -6 157 -18 215 -28 87 -14 183 -17 565 -17 431 0 469 1 605 23 230
36 440 82 465 102 6 4 28 13 50 20 22 6 72 24 110 40 39 16 77 31 85 35 8 3
39 20 67 38 29 18 89 54 134 81 107 65 264 208 318 291 14 22 28 42 31 45 3 3
21 27 40 54 19 26 44 58 56 70 11 11 26 36 32 54 6 18 20 45 32 59 11 14 20
31 20 38 0 7 10 27 23 46 12 19 31 55 41 82 10 26 21 47 26 47 5 0 14 17 20
38 7 20 21 51 31 68 11 17 19 38 19 46 0 8 16 45 35 84 19 38 35 76 35 84 0 8
9 26 20 40 11 14 20 32 20 41 0 9 11 37 24 62 14 25 31 68 39 94 8 26 22 62
31 78 9 17 16 37 16 45 0 8 14 42 30 75 17 33 30 66 30 75 0 8 9 29 19 46 24
39 67 143 87 209 9 28 21 59 28 70 7 11 19 38 26 60 7 22 24 60 37 84 12 24
23 49 23 56 0 7 9 23 19 37 11 14 25 47 32 74 7 27 18 62 26 78 8 15 21 47 28
70 22 69 61 155 78 174 9 10 22 34 28 53 7 19 20 44 29 56 10 13 21 40 25 60
4 20 15 53 25 73 10 19 23 55 30 80 6 25 18 52 25 60 7 8 18 32 25 54 7 21 23
54 36 74 13 19 24 42 24 51 0 9 9 35 20 56 11 22 28 67 36 99 9 33 22 69 30
80 8 11 14 28 14 37 0 9 11 37 25 62 13 25 29 64 35 86 6 22 17 46 25 54 7 8
21 41 31 73 9 32 25 75 35 94 11 19 19 41 19 49 0 13 17 51 86 195 13 28 24
55 24 61 0 6 11 26 24 44 13 18 27 49 31 69 4 20 18 61 31 90 13 29 24 58 24
65 0 7 9 26 19 44 11 17 25 50 31 72 6 22 17 46 24 54 8 8 20 34 26 58 7 24
19 58 28 74 14 27 31 69 76 195 9 25 25 63 35 85 47 96 79 172 85 200 3 17 17
53 30 80 46 97 74 160 81 185 4 14 16 36 26 49 11 13 19 31 19 39 0 8 11 39
25 67 13 29 29 72 34 96 6 24 22 66 36 93 14 27 25 56 25 63 0 8 9 31 19 51
48 92 81 163 81 174 0 6 9 30 19 52 21 44 61 142 91 218 10 26 25 54 33 62 8
8 18 32 22 53 4 21 15 52 25 68 10 17 21 46 25 65 13 58 79 217 136 323 11 21
27 60 34 85 21 73 72 212 83 225 5 7 13 26 17 44 3 18 14 42 23 55 10 13 24
41 31 63 7 22 19 47 26 55 7 8 21 40 31 70 10 30 23 64 30 75 6 11 17 38 24
60 7 22 18 47 25 55 8 8 17 29 20 45 7 27 57 142 90 205 8 14 21 56 29 94 9
37 23 77 31 89 8 12 15 29 15 37 0 9 11 38 24 66 13 27 29 67 36 89 7 22 18
47 25 55 7 8 20 40 30 70 10 30 21 60 26 65 8 11 45 106 80 204 11 30 25 62
33 70 7 9 17 27 21 41 4 14 14 36 22 49 8 13 23 51 33 85 19 66 48 141 86 222
13 28 24 57 24 65 0 8 9 28 20 44 11 17 27 55 36 85 9 30 22 63 30 74 8 11 14
27 14 34 0 15 50 133 96 227 13 28 24 57 24 66 0 9 9 28 20 42 11 14 20 30 20
36 0 13 66 187 80 214 31 54 90 182 90 194 0 4 11 28 24 53 13 25 28 61 35 80
6 19 22 57 36 84 14 27 25 55 25 61 0 7 9 20 19 29 11 10 23 31 26 46 3 15 17
42 31 61 13 18 24 37 24 42 0 12 108 206 132 237 37 48 71 105 83 140 13 36
52 101 78 132 8 9 18 26 22 38 4 12 19 36 34 53 15 18 41 55 59 82 53 84 146
206 165 216 9 5 17 15 17 21 0 39 389 442 503 521 37 26 72 47 76 47 5 0 14 7
22 16 26 32 180 121 239 139 14 4 53 20 87 36 34 16 67 29 74 29 6 0 26 9 43
19 17 11 60 24 96 31 36 6 85 17 110 25 25 8 115 21 201 29 146 14 205 27 221
50 10 14 20 110 13 127 -5 14 -178 16 -1648 20 -903 3 -1860 2 -2127 -1 l-485
-5 -14 -29 c-26 -54 -31 -95 -13 -112 28 -29 65 -35 247 -44 253 -13 321 -19
390 -35 33 -8 111 -19 174 -25 62 -6 126 -17 141 -25 15 -8 60 -21 100 -29 40
-9 82 -22 94 -29 11 -8 43 -19 71 -26 81 -20 174 -79 253 -158 39 -41 72 -80
72 -87 0 -7 9 -24 19 -38 11 -13 24 -44 31 -68 7 -25 20 -63 30 -85 10 -22 21
-80 25 -130 7 -95 -8 -273 -26 -307 -6 -11 -17 -65 -25 -119 -7 -55 -18 -108
-24 -119 -6 -11 -20 -61 -30 -111 -11 -51 -24 -97 -29 -103 -5 -6 -14 -35 -20
-65 -6 -30 -20 -68 -30 -85 -10 -17 -24 -53 -30 -80 -7 -27 -21 -60 -32 -74
-10 -14 -19 -32 -19 -41 0 -33 -37 -144 -108 -330 -12 -29 -28 -61 -35 -70 -8
-9 -18 -32 -22 -51 -4 -19 -15 -51 -25 -70 -11 -19 -26 -57 -34 -85 -25 -85
-55 -168 -75 -210 -54 -113 -90 -193 -96 -215 -4 -14 -11 -30 -16 -36 -5 -6
-18 -35 -28 -65 -37 -104 -66 -176 -77 -190 -6 -8 -17 -32 -24 -54 -7 -22 -20
-49 -30 -60 -9 -11 -22 -40 -29 -65 -13 -44 -39 -106 -87 -205 -13 -28 -24
-55 -24 -61 0 -6 -8 -22 -19 -35 -10 -13 -24 -42 -31 -64 -7 -22 -18 -47 -25
-55 -7 -8 -20 -37 -28 -65 -22 -69 -67 -177 -82 -195 -7 -8 -18 -32 -24 -52
-7 -20 -20 -47 -30 -60 -10 -13 -24 -41 -31 -63 -7 -22 -18 -47 -25 -55 -7 -8
-18 -33 -25 -55 -7 -22 -20 -58 -30 -80 -10 -22 -30 -67 -45 -100 -15 -33 -40
-87 -55 -120 -16 -33 -34 -79 -41 -103 -7 -23 -18 -47 -26 -53 -7 -6 -13 -17
-13 -23 0 -6 -26 -65 -58 -131 -85 -174 -109 -226 -117 -260 -3 -16 -12 -37
-20 -45 -7 -8 -18 -32 -25 -54 -7 -21 -25 -63 -41 -93 -16 -30 -29 -61 -29
-68 0 -7 -6 -18 -14 -24 -8 -7 -17 -24 -21 -39 -3 -15 -15 -45 -25 -67 -10
-22 -28 -66 -40 -97 -12 -32 -25 -58 -30 -58 -5 0 -11 -15 -15 -32 -6 -29 -39
-106 -82 -193 -9 -16 -24 -54 -34 -84 -10 -30 -23 -59 -28 -65 -5 -6 -14 -31
-21 -55 -6 -25 -23 -61 -36 -80 -13 -20 -24 -41 -24 -47 0 -6 -8 -22 -18 -35
-11 -13 -28 -51 -40 -84 -44 -128 -64 -182 -83 -221 -10 -22 -19 -47 -19 -56
0 -8 -11 -31 -24 -50 -13 -20 -29 -53 -36 -74 -7 -22 -18 -46 -25 -54 -7 -8
-18 -37 -24 -65 -7 -27 -18 -59 -25 -70 -7 -11 -19 -38 -26 -60 -7 -22 -21
-54 -31 -71 -11 -17 -19 -38 -19 -45 0 -8 -16 -45 -35 -83 -19 -39 -35 -77
-35 -85 0 -9 -12 -38 -25 -66 -14 -27 -25 -56 -25 -63 0 -7 -11 -35 -25 -62
-14 -27 -25 -55 -25 -61 0 -11 -28 -76 -81 -184 -10 -22 -28 -67 -40 -100 -45
-131 -59 -168 -68 -179 -4 -6 -16 -34 -25 -63 -10 -28 -23 -57 -31 -63 -8 -6
-17 -26 -21 -43 -3 -18 -17 -52 -30 -77 -24 -46 -39 -86 -80 -202 -12 -37 -29
-77 -37 -90 -8 -13 -18 -36 -21 -52 -4 -16 -15 -40 -25 -53 -11 -12 -22 -39
-26 -60 -3 -20 -17 -57 -30 -82 -31 -62 -85 -187 -85 -199 0 -5 -8 -20 -18
-33 -10 -13 -24 -44 -31 -69 -7 -25 -19 -54 -26 -66 -7 -11 -19 -41 -25 -65
-7 -24 -37 -96 -66 -159 -76 -160 -97 -205 -134 -285 -17 -38 -36 -77 -41 -85
-5 -8 -16 -28 -23 -45 -8 -16 -33 -59 -55 -95 -23 -36 -50 -83 -61 -105 -39
-77 -68 -117 -168 -233 -158 -185 -316 -338 -382 -372 -14 -7 -34 -22 -45 -32
-41 -40 -97 -77 -178 -118 -117 -60 -146 -76 -165 -93 -18 -16 -126 -62 -182
-78 -19 -6 -63 -21 -97 -35 -34 -13 -71 -24 -83 -24 -12 0 -40 -11 -63 -24
-23 -14 -64 -28 -92 -31 -27 -4 -68 -15 -90 -25 -22 -10 -69 -23 -105 -30 -36
-6 -85 -17 -110 -25 -25 -8 -97 -21 -160 -29 -63 -8 -142 -22 -175 -30 -33 -8
-141 -20 -240 -26 -99 -7 -237 -20 -307 -31 -164 -25 -724 -28 -859 -5 -46 8
-165 19 -264 26 -413 26 -484 31 -594 45 -64 8 -204 19 -313 25 -108 5 -229
17 -269 25 -40 9 -140 20 -223 25 -177 11 -245 19 -267 30 -8 5 -73 14 -145
20 -71 6 -187 20 -259 31 -267 40 -1181 49 -1395 14 -47 -8 -150 -21 -230 -30
-80 -9 -158 -23 -175 -32 -74 -39 -186 -44 -207 -10 -8 13 42 64 154 160 63
53 123 113 166 164 40 49 82 106 82 112 0 3 11 19 25 35 14 16 25 33 25 37 0
4 11 20 24 36 13 16 43 67 67 113 23 47 48 92 55 100 6 8 15 29 19 47 3 18 15
43 25 55 10 13 23 44 30 68 7 25 20 61 30 80 9 19 23 66 29 104 7 38 18 84 26
103 8 18 19 58 24 89 6 31 18 70 26 87 8 16 20 60 26 96 6 36 19 86 29 111 10
25 23 86 29 135 7 50 18 113 26 140 8 28 21 118 30 200 9 83 20 164 26 180 5
17 16 91 24 166 7 75 21 153 29 174 9 21 21 92 26 159 6 67 17 146 24 176 8
30 17 84 20 120 20 221 29 297 41 331 8 20 19 91 25 156 6 65 17 141 25 169 8
28 19 95 25 150 6 54 19 128 30 164 10 36 24 118 29 182 6 64 18 147 26 185 8
37 21 141 29 230 8 89 20 172 26 183 6 12 18 78 26 147 8 69 21 141 30 161 8
19 18 94 24 166 5 72 16 151 24 176 8 25 22 126 31 225 9 99 22 205 30 235 8
30 19 107 25 170 6 63 20 144 30 180 10 36 21 103 25 148 3 46 14 109 25 140
11 32 24 112 30 183 6 69 15 141 21 160 5 19 19 121 29 228 11 106 24 207 30
225 5 17 16 95 24 172 8 78 18 150 24 160 11 23 29 125 37 217 3 38 12 87 20
110 7 23 19 96 25 162 6 66 18 154 26 195 7 41 21 131 29 200 9 69 22 148 30
175 8 28 19 100 25 160 6 61 20 136 30 168 11 32 24 109 30 171 5 62 15 140
24 172 8 32 20 109 26 169 7 61 19 126 26 145 8 19 20 70 29 114 8 43 19 83
24 90 5 6 16 37 24 69 9 33 22 66 29 75 8 10 20 35 27 57 29 87 101 235 131
270 10 11 23 31 30 45 20 40 134 181 181 226 24 22 73 65 109 95 137 115 158
128 335 210 50 22 101 47 115 54 14 7 50 18 80 25 30 7 60 17 66 22 7 4 56 17
110 27 55 11 111 24 125 29 14 6 70 15 125 22 54 6 137 20 184 30 47 10 146
23 220 29 189 15 664 33 684 25 29 -11 185 6 201 23 23 22 21 139 -2 147 -26
10 -5890 16 -5952 6z"/>
<path d="M9075 13190 c-55 -5 -134 -15 -175 -23 -41 -9 -102 -19 -135 -22 -33
-4 -80 -13 -105 -21 -25 -7 -92 -20 -150 -29 -150 -22 -402 -101 -456 -144
-15 -11 -34 -21 -44 -21 -10 0 -28 -8 -41 -18 -13 -10 -60 -35 -104 -57 -81
-40 -181 -119 -266 -210 -62 -65 -109 -125 -109 -137 0 -6 -8 -22 -19 -36 -41
-58 -138 -260 -145 -301 -3 -24 -14 -57 -23 -75 -25 -45 -25 -260 -1 -296 9
-14 22 -47 29 -75 6 -27 18 -57 26 -66 8 -10 20 -40 28 -69 7 -28 19 -57 25
-65 14 -17 55 -127 81 -220 11 -38 26 -77 33 -85 8 -8 19 -31 25 -51 6 -20 20
-53 31 -74 11 -22 20 -46 20 -55 0 -8 9 -32 19 -51 11 -20 27 -62 36 -93 9
-31 23 -69 30 -83 8 -14 19 -49 26 -77 6 -28 20 -62 30 -75 11 -13 19 -29 19
-36 0 -7 10 -32 23 -56 13 -24 29 -66 36 -94 7 -27 17 -55 22 -61 5 -6 17 -38
28 -71 10 -32 28 -77 40 -99 12 -21 21 -46 21 -54 0 -8 12 -33 25 -55 14 -22
25 -46 25 -54 0 -8 9 -33 20 -55 10 -23 28 -68 39 -101 40 -121 59 -171 85
-219 14 -27 26 -55 26 -62 0 -7 11 -34 25 -60 14 -26 25 -54 25 -63 0 -9 8
-32 18 -51 11 -19 24 -57 31 -85 7 -27 18 -59 25 -70 7 -11 21 -42 31 -70 11
-27 27 -63 37 -80 10 -16 18 -36 18 -44 0 -8 9 -33 19 -55 19 -40 48 -117 77
-206 8 -25 23 -63 34 -85 10 -22 35 -74 54 -116 20 -42 36 -81 36 -88 0 -7 9
-31 19 -54 21 -47 54 -136 77 -212 14 -48 59 -149 90 -207 8 -15 22 -51 31
-80 8 -29 19 -57 23 -63 4 -5 15 -36 24 -68 9 -32 26 -72 36 -90 11 -18 20
-41 20 -51 0 -11 11 -38 24 -60 13 -23 29 -59 36 -81 7 -22 17 -46 23 -53 5
-7 18 -40 28 -75 43 -148 70 -219 127 -332 16 -33 51 -123 88 -229 13 -37 28
-73 33 -80 6 -6 15 -34 21 -60 6 -27 20 -60 30 -74 11 -13 20 -32 20 -41 0 -9
9 -35 20 -56 11 -22 27 -61 34 -86 8 -25 23 -63 34 -85 10 -21 23 -57 26 -79
4 -22 16 -53 26 -70 9 -16 23 -48 30 -70 7 -22 18 -47 26 -55 7 -8 18 -37 25
-65 7 -27 18 -59 25 -70 7 -11 18 -42 25 -70 7 -27 20 -63 30 -80 10 -16 23
-50 29 -75 7 -25 18 -52 25 -60 7 -8 22 -40 33 -70 11 -30 34 -93 52 -140 17
-47 38 -107 47 -135 9 -27 24 -61 34 -75 10 -14 23 -45 29 -70 7 -25 18 -52
25 -60 7 -8 18 -33 24 -55 6 -22 17 -49 25 -61 8 -11 20 -43 27 -70 7 -27 20
-65 30 -84 9 -20 20 -57 24 -82 4 -28 17 -58 30 -72 13 -14 26 -39 30 -57 4
-17 15 -46 25 -63 10 -17 23 -55 30 -84 7 -28 16 -55 21 -58 5 -3 16 -31 25
-62 9 -31 22 -66 29 -78 7 -11 20 -45 29 -74 9 -29 22 -60 30 -69 13 -15 30
-55 77 -191 10 -30 23 -63 29 -73 6 -9 17 -47 26 -83 8 -37 21 -73 29 -81 8
-7 20 -33 26 -56 7 -23 20 -51 30 -62 9 -11 20 -36 24 -55 4 -19 16 -51 26
-71 10 -20 23 -58 30 -85 7 -27 18 -58 25 -69 7 -11 18 -42 25 -70 6 -27 23
-68 35 -91 13 -22 24 -48 24 -56 0 -8 8 -26 19 -39 10 -13 25 -46 34 -74 8
-27 27 -79 40 -115 l25 -65 56 1 c31 1 61 6 68 12 7 5 40 18 72 27 33 10 73
26 90 36 17 10 37 19 45 19 21 0 165 72 174 87 4 7 25 22 45 33 20 12 56 33
78 48 23 15 61 40 85 56 55 36 289 272 289 291 0 8 9 19 19 25 11 5 26 21 33
34 7 13 31 50 53 82 22 33 49 76 60 96 72 134 103 197 109 225 4 17 14 37 21
43 8 6 19 28 26 48 6 20 18 44 25 52 7 9 20 36 29 60 9 24 23 53 33 63 12 14
18 41 20 96 3 66 0 82 -22 124 -14 26 -26 54 -26 61 0 7 -11 33 -23 57 -13 24
-30 62 -37 84 -7 22 -16 45 -21 50 -4 6 -17 44 -28 84 -11 41 -27 83 -35 95
-7 12 -19 47 -26 79 -6 31 -15 57 -20 57 -5 0 -16 24 -25 53 -9 28 -25 68 -36
88 -10 20 -19 44 -19 53 0 8 -11 39 -23 69 -13 29 -30 76 -36 104 -7 29 -19
57 -26 63 -8 7 -21 35 -29 65 -9 29 -22 58 -30 64 -7 6 -19 33 -26 59 -6 26
-16 52 -21 58 -10 12 -51 127 -78 220 -10 34 -27 75 -39 92 -12 16 -22 36 -22
44 0 7 -11 36 -25 63 -13 28 -25 57 -25 65 0 8 -11 39 -25 68 -13 28 -27 69
-31 90 -4 20 -17 57 -30 82 -13 25 -24 52 -24 61 0 9 -13 41 -30 72 -16 31
-30 62 -30 69 0 8 -8 29 -18 48 -10 19 -25 58 -32 85 -7 28 -19 59 -26 70 -7
11 -18 43 -25 70 -6 28 -20 64 -29 80 -10 17 -20 44 -24 60 -4 17 -19 57 -35
90 -36 77 -65 147 -86 210 -39 117 -61 171 -77 195 -9 14 -20 39 -24 55 -4 17
-15 46 -25 65 -30 59 -76 183 -84 225 -3 22 -15 54 -25 70 -9 17 -23 48 -30
70 -7 22 -19 45 -26 53 -8 7 -19 32 -25 55 -6 23 -16 51 -22 62 -16 27 -64
166 -84 240 -9 33 -22 67 -30 76 -7 9 -20 38 -27 65 -15 52 -58 162 -80 204
-7 14 -18 46 -25 72 -6 26 -22 68 -36 94 -14 26 -25 57 -25 69 0 12 -9 30 -19
39 -11 10 -23 32 -26 50 -4 17 -15 45 -25 62 -10 17 -26 58 -35 90 -9 33 -21
64 -25 69 -4 6 -15 34 -24 64 -9 30 -22 64 -30 76 -8 12 -21 44 -29 71 -9 27
-25 67 -36 89 -12 21 -21 46 -21 55 0 8 -9 32 -20 52 -11 20 -25 58 -31 85 -7
26 -20 64 -29 83 -10 19 -20 52 -24 72 -4 21 -14 44 -22 53 -9 9 -26 44 -39
78 -13 34 -35 94 -50 132 -15 39 -36 102 -46 140 -10 39 -28 86 -39 106 -11
20 -20 45 -20 56 0 10 -11 34 -25 53 -14 19 -25 41 -25 50 0 9 -11 38 -24 66
-14 27 -34 76 -46 109 -12 33 -30 83 -40 112 -10 28 -25 62 -33 75 -9 12 -21
43 -27 68 -7 25 -16 48 -21 51 -9 5 -44 93 -75 189 -9 25 -24 68 -35 95 -12
28 -25 66 -31 85 -5 19 -17 42 -25 51 -8 10 -20 40 -28 69 -7 28 -18 57 -24
64 -10 12 -39 91 -81 221 -11 33 -29 78 -40 100 -11 21 -20 46 -20 55 0 8 -8
31 -19 50 -10 19 -24 53 -31 75 -7 22 -20 54 -30 70 -10 17 -23 56 -30 87 -6
32 -15 60 -21 63 -5 3 -16 32 -25 63 -9 31 -20 62 -25 68 -16 20 -71 159 -88
224 -10 36 -23 75 -29 87 -18 33 -15 97 6 115 52 44 236 86 487 109 66 7 126
16 133 22 19 15 16 123 -4 131 -21 8 -384 5 -509 -4z"/>
<path d="M13868 4197 c-15 -28 -36 -72 -47 -97 -11 -25 -25 -52 -30 -60 -9
-14 -15 -32 -63 -175 -11 -33 -28 -78 -38 -100 -10 -22 -23 -57 -30 -77 -6
-21 -16 -40 -20 -43 -5 -3 -14 -25 -20 -48 -7 -23 -22 -58 -35 -77 -13 -19
-26 -51 -30 -70 -4 -19 -13 -44 -19 -55 -7 -11 -21 -45 -31 -75 -10 -30 -24
-64 -30 -75 -7 -11 -18 -38 -25 -60 -7 -22 -18 -47 -25 -55 -7 -8 -19 -35 -26
-60 -7 -25 -23 -62 -36 -82 -13 -21 -23 -42 -23 -47 0 -23 -85 -226 -136 -324
-13 -26 -24 -52 -24 -58 0 -5 -16 -45 -36 -87 -69 -147 -74 -159 -74 -173 0
-8 -11 -36 -25 -64 -13 -27 -25 -57 -25 -66 0 -9 -10 -32 -23 -51 -13 -18 -29
-55 -36 -82 -6 -26 -32 -88 -56 -138 -24 -49 -47 -102 -50 -118 -4 -16 -14
-39 -24 -52 -10 -13 -24 -41 -31 -63 -7 -22 -18 -47 -25 -55 -7 -8 -18 -33
-25 -55 -7 -22 -24 -59 -37 -83 -32 -55 -26 -92 16 -92 51 0 224 41 278 66 30
13 57 24 61 24 10 0 92 74 92 83 0 3 14 28 30 54 17 26 30 56 30 67 1 12 8 39
16 61 9 22 23 76 33 120 10 44 23 89 29 101 6 12 18 53 26 92 8 39 21 81 30
94 8 13 20 57 27 98 6 41 17 87 25 101 7 14 18 57 24 95 7 38 23 101 36 141
13 39 24 79 24 88 0 8 9 33 20 55 11 22 25 63 31 92 7 29 20 63 30 76 10 13
21 44 25 70 4 26 17 76 29 112 13 36 26 85 30 110 4 25 13 56 20 70 7 14 18
52 25 85 6 33 18 70 26 82 8 12 20 50 28 83 8 34 22 72 30 85 9 14 21 48 27
77 5 29 18 73 29 98 22 54 57 159 72 215 5 22 19 58 29 81 11 22 26 63 33 92
15 55 11 64 -41 91 -33 17 -36 15 -65 -42z"/>
</g>
</svg>
