<svg xmlns="http://www.w3.org/2000/svg" xmlns:xlink="http://www.w3.org/1999/xlink" width="2000" zoomAndPan="magnify" viewBox="0 0 1500 1087.499972" height="1450" preserveAspectRatio="xMidYMid meet" version="1.0"><defs><clipPath id="3e980a596c"><path d="M 5 12 L 693 12 L 693 1078.941406 L 5 1078.941406 Z M 5 12 " clip-rule="nonzero"/></clipPath><clipPath id="3075d08612"><path d="M 810 12 L 1498 12 L 1498 1078.941406 L 810 1078.941406 Z M 810 12 " clip-rule="nonzero"/></clipPath><clipPath id="ef66b39b18"><path d="M 671.0625 437.066406 L 688.207031 437.066406 L 688.207031 454.210938 L 671.0625 454.210938 Z M 671.0625 437.066406 " clip-rule="nonzero"/></clipPath><clipPath id="ef8568d15a"><path d="M 679.636719 437.066406 C 674.902344 437.066406 671.0625 440.902344 671.0625 445.636719 C 671.0625 450.371094 674.902344 454.210938 679.636719 454.210938 C 684.371094 454.210938 688.207031 450.371094 688.207031 445.636719 C 688.207031 440.902344 684.371094 437.066406 679.636719 437.066406 Z M 679.636719 437.066406 " clip-rule="nonzero"/></clipPath><clipPath id="286a345305"><path d="M 0.0625 0.0664062 L 17.207031 0.0664062 L 17.207031 17.210938 L 0.0625 17.210938 Z M 0.0625 0.0664062 " clip-rule="nonzero"/></clipPath><clipPath id="35083dba29"><path d="M 8.636719 0.0664062 C 3.902344 0.0664062 0.0625 3.902344 0.0625 8.636719 C 0.0625 13.371094 3.902344 17.210938 8.636719 17.210938 C 13.371094 17.210938 17.207031 13.371094 17.207031 8.636719 C 17.207031 3.902344 13.371094 0.0664062 8.636719 0.0664062 Z M 8.636719 0.0664062 " clip-rule="nonzero"/></clipPath><clipPath id="8a302fd987"><rect x="0" width="18" y="0" height="18"/></clipPath></defs><g clip-path="url(#3e980a596c)"><path fill="#f9b762" d="M 692.273438 355.917969 C 692.273438 261.160156 654.523438 172.921875 585.972656 107.453125 C 517.460938 42.027344 427.445312 8.390625 332.539062 12.769531 C 247.40625 16.683594 166.984375 52.375 106.097656 113.261719 C 45.210938 174.152344 9.515625 254.570312 5.601562 339.703125 C 1.234375 434.625 34.859375 524.632812 100.289062 593.136719 C 164.460938 660.332031 250.523438 697.929688 343.144531 699.390625 C 330.152344 818.667969 282.308594 935.109375 200.851562 1045.613281 C 194.761719 1053.878906 195.496094 1064.769531 202.644531 1072.105469 C 206.6875 1076.257812 211.925781 1078.382812 217.234375 1078.382812 C 221.300781 1078.382812 225.40625 1077.136719 229.050781 1074.59375 C 421.617188 940.425781 557.03125 792.660156 631.53125 635.398438 C 691.769531 508.25 693.796875 410.457031 691.800781 373.84375 C 692.109375 367.710938 692.273438 361.679688 692.273438 355.917969 Z M 674.542969 374.347656 C 676.507812 409.273438 674.730469 503.90625 615.933594 628.019531 C 542.738281 782.527344 409.25 928.019531 219.179688 1060.449219 C 217.300781 1061.757812 215.867188 1060.964844 215 1060.078125 C 214.125 1059.175781 213.367188 1057.714844 214.734375 1055.859375 C 300.242188 939.859375 349.542969 817.28125 361.28125 691.519531 L 362.171875 681.96875 L 352.582031 682.089844 C 351.933594 682.101562 351.292969 682.121094 350.652344 682.144531 C 350.015625 682.164062 349.386719 682.191406 348.746094 682.191406 C 258.75 682.191406 174.941406 646.335938 112.761719 581.230469 C 50.621094 516.164062 18.683594 430.671875 22.832031 340.503906 C 30.488281 174.050781 166.871094 37.664062 333.324219 30.003906 C 423.480469 25.851562 508.988281 57.792969 574.054688 119.9375 C 639.160156 182.117188 675.015625 265.925781 675.015625 355.921875 C 675.015625 361.527344 674.855469 367.414062 674.539062 373.410156 L 674.515625 373.882812 Z M 674.542969 374.347656 " fill-opacity="1" fill-rule="nonzero"/></g><g clip-path="url(#3075d08612)"><path fill="#f9b762" d="M 1497.191406 355.917969 C 1497.191406 261.164062 1459.441406 172.921875 1390.890625 107.453125 C 1322.382812 42.023438 1232.347656 8.390625 1137.457031 12.769531 C 1052.324219 16.683594 971.90625 52.375 911.015625 113.261719 C 850.128906 174.152344 814.4375 254.570312 810.519531 339.703125 C 806.152344 434.625 839.777344 524.632812 905.207031 593.136719 C 969.378906 660.332031 1055.441406 697.929688 1148.0625 699.390625 C 1135.070312 818.667969 1087.226562 935.109375 1005.769531 1045.613281 C 999.679688 1053.878906 1000.417969 1064.769531 1007.5625 1072.105469 C 1011.605469 1076.257812 1016.84375 1078.382812 1022.152344 1078.382812 C 1026.21875 1078.382812 1030.324219 1077.136719 1033.96875 1074.59375 C 1226.535156 940.425781 1361.949219 792.660156 1436.449219 635.398438 C 1496.683594 508.253906 1498.714844 410.460938 1496.714844 373.84375 C 1497.03125 367.722656 1497.191406 361.691406 1497.191406 355.917969 Z M 1479.460938 374.347656 C 1481.425781 409.273438 1479.652344 503.902344 1420.855469 628.019531 C 1347.65625 782.527344 1214.167969 928.019531 1024.101562 1060.449219 C 1022.21875 1061.757812 1020.789062 1060.964844 1019.917969 1060.078125 C 1019.042969 1059.175781 1018.285156 1057.714844 1019.652344 1055.859375 C 1105.160156 939.859375 1154.460938 817.28125 1166.199219 691.519531 L 1167.089844 681.96875 L 1157.5 682.089844 C 1156.855469 682.101562 1156.210938 682.121094 1155.570312 682.144531 C 1154.933594 682.164062 1154.304688 682.191406 1153.664062 682.191406 C 1063.667969 682.191406 979.859375 646.335938 917.679688 581.230469 C 855.539062 516.164062 823.601562 430.671875 827.75 340.503906 C 835.40625 174.050781 971.792969 37.664062 1138.242188 30.003906 C 1228.40625 25.851562 1313.90625 57.796875 1378.96875 119.9375 C 1444.078125 182.117188 1479.933594 265.925781 1479.933594 355.921875 C 1479.933594 361.539062 1479.773438 367.421875 1479.453125 373.40625 L 1479.429688 373.878906 Z M 1479.460938 374.347656 " fill-opacity="1" fill-rule="nonzero"/></g><g clip-path="url(#ef66b39b18)"><g clip-path="url(#ef8568d15a)"><g transform="matrix(1, 0, 0, 1, 671, 437)"><g clip-path="url(#8a302fd987)"><g clip-path="url(#286a345305)"><g clip-path="url(#35083dba29)"><path fill="#f9b762" d="M 0.0625 0.0664062 L 17.207031 0.0664062 L 17.207031 17.210938 L 0.0625 17.210938 Z M 0.0625 0.0664062 " fill-opacity="1" fill-rule="nonzero"/></g></g></g></g></g></g></svg>